<mxfile host="65bd71144e">
    <diagram id="Z_sy9_pRJLrxqIElpyG8" name="基本アーキテクチャ図(1)">
        <mxGraphModel dx="1273" dy="1326" grid="1" gridSize="10" guides="1" tooltips="1" connect="1" arrows="1" fold="1" page="0" pageScale="1" pageWidth="827" pageHeight="1169" math="0" shadow="0">
            <root>
                <mxCell id="0"/>
                <mxCell id="2" value="枠組み" parent="0"/>
                <mxCell id="3" value="" style="rounded=0;whiteSpace=wrap;html=1;labelBackgroundColor=none;fontSize=11;fillColor=none;dashed=1;container=0;strokeColor=#FF99CC;" parent="2" vertex="1">
                    <mxGeometry x="-236" y="83" width="1256" height="667" as="geometry"/>
                </mxCell>
                <mxCell id="21" value="&lt;div style=&quot;&quot;&gt;&lt;br&gt;&lt;/div&gt;" style="rounded=0;whiteSpace=wrap;html=1;labelBackgroundColor=none;strokeColor=#009900;fontSize=11;fontColor=#FFFFFF;fillColor=none;dashed=1;strokeWidth=3;align=right;labelPosition=left;verticalLabelPosition=top;verticalAlign=bottom;" parent="2" vertex="1">
                    <mxGeometry x="-79" y="571" width="240" height="170" as="geometry"/>
                </mxCell>
                <mxCell id="22" value="V" style="text;strokeColor=#005700;align=center;fillColor=#008a00;html=1;verticalAlign=middle;whiteSpace=wrap;rounded=0;labelBackgroundColor=none;fontSize=20;fontColor=#ffffff;" parent="2" vertex="1">
                    <mxGeometry x="-80" y="570" width="20" height="20" as="geometry"/>
                </mxCell>
                <mxCell id="23" value="" style="group" parent="2" vertex="1" connectable="0">
                    <mxGeometry x="580" y="120" width="280" height="480" as="geometry"/>
                </mxCell>
                <mxCell id="24" value="&lt;div style=&quot;&quot;&gt;&lt;br&gt;&lt;/div&gt;" style="rounded=0;whiteSpace=wrap;html=1;labelBackgroundColor=none;strokeColor=#009900;fontSize=11;fontColor=#FFFFFF;fillColor=none;dashed=1;strokeWidth=3;align=right;labelPosition=left;verticalLabelPosition=top;verticalAlign=bottom;" parent="23" vertex="1">
                    <mxGeometry x="1.08" y="1" width="278.92" height="479" as="geometry"/>
                </mxCell>
                <mxCell id="25" value="M" style="text;strokeColor=#005700;align=center;fillColor=#008a00;html=1;verticalAlign=middle;whiteSpace=wrap;rounded=0;labelBackgroundColor=none;fontSize=20;fontColor=#ffffff;" parent="23" vertex="1">
                    <mxGeometry width="21.576763485477176" height="20" as="geometry"/>
                </mxCell>
                <mxCell id="30" value="" style="group" parent="2" vertex="1" connectable="0">
                    <mxGeometry x="-80" y="824" width="250" height="390" as="geometry"/>
                </mxCell>
                <mxCell id="31" value="&lt;div style=&quot;&quot;&gt;&lt;br&gt;&lt;/div&gt;" style="rounded=0;whiteSpace=wrap;html=1;labelBackgroundColor=none;strokeColor=#009900;fontSize=11;fontColor=#FFFFFF;fillColor=none;dashed=1;strokeWidth=3;align=right;labelPosition=left;verticalLabelPosition=top;verticalAlign=bottom;" parent="30" vertex="1">
                    <mxGeometry x="1" y="1" width="249" height="389" as="geometry"/>
                </mxCell>
                <mxCell id="32" value="C" style="text;strokeColor=#005700;align=center;fillColor=#008a00;html=1;verticalAlign=middle;whiteSpace=wrap;rounded=0;labelBackgroundColor=none;fontSize=20;fontColor=#ffffff;" parent="30" vertex="1">
                    <mxGeometry width="20" height="20" as="geometry"/>
                </mxCell>
                <mxCell id="33" value="" style="group" parent="2" vertex="1" connectable="0">
                    <mxGeometry x="580" y="824" width="280" height="360" as="geometry"/>
                </mxCell>
                <mxCell id="34" value="&lt;div style=&quot;&quot;&gt;&lt;br&gt;&lt;/div&gt;" style="rounded=0;whiteSpace=wrap;html=1;labelBackgroundColor=none;strokeColor=#009900;fontSize=11;fontColor=#FFFFFF;fillColor=none;dashed=1;strokeWidth=3;align=right;labelPosition=left;verticalLabelPosition=top;verticalAlign=bottom;" parent="33" vertex="1">
                    <mxGeometry x="1.080000000000041" y="1" width="278.92" height="359" as="geometry"/>
                </mxCell>
                <mxCell id="35" value="M" style="text;strokeColor=#005700;align=center;fillColor=#008a00;html=1;verticalAlign=middle;whiteSpace=wrap;rounded=0;labelBackgroundColor=none;fontSize=20;fontColor=#ffffff;" parent="33" vertex="1">
                    <mxGeometry width="21.576763485477176" height="20" as="geometry"/>
                </mxCell>
                <mxCell id="36" value="" style="group" parent="2" vertex="1" connectable="0">
                    <mxGeometry x="-80" y="1274" width="241" height="171" as="geometry"/>
                </mxCell>
                <mxCell id="37" value="&lt;div style=&quot;&quot;&gt;&lt;br&gt;&lt;/div&gt;" style="rounded=0;whiteSpace=wrap;html=1;labelBackgroundColor=none;strokeColor=#009900;fontSize=11;fontColor=#FFFFFF;fillColor=none;dashed=1;strokeWidth=3;align=right;labelPosition=left;verticalLabelPosition=top;verticalAlign=bottom;" parent="36" vertex="1">
                    <mxGeometry x="1" y="1" width="240" height="170" as="geometry"/>
                </mxCell>
                <mxCell id="38" value="V" style="text;strokeColor=#005700;align=center;fillColor=#008a00;html=1;verticalAlign=middle;whiteSpace=wrap;rounded=0;labelBackgroundColor=none;fontSize=20;fontColor=#ffffff;" parent="36" vertex="1">
                    <mxGeometry width="20" height="20" as="geometry"/>
                </mxCell>
                <mxCell id="39" value="" style="rounded=0;whiteSpace=wrap;html=1;labelBackgroundColor=none;strokeColor=#FF99CC;fontSize=11;fontColor=#FFFFFF;fillColor=none;dashed=1;container=0;" parent="2" vertex="1">
                    <mxGeometry x="-236" y="787" width="1256" height="667" as="geometry"/>
                </mxCell>
                <mxCell id="40" value="&lt;span style=&quot;font-size: 11px;&quot;&gt;b)：パスワードを忘れた場合の処理&lt;/span&gt;" style="text;strokeColor=none;align=left;fillColor=none;html=1;verticalAlign=middle;whiteSpace=wrap;rounded=0;labelBackgroundColor=none;fontSize=10;" parent="2" vertex="1">
                    <mxGeometry x="-236" y="784" width="206" height="20" as="geometry"/>
                </mxCell>
                <mxCell id="5" value="&lt;div style=&quot;&quot;&gt;&lt;br&gt;&lt;/div&gt;" style="rounded=0;whiteSpace=wrap;html=1;labelBackgroundColor=none;strokeColor=#009900;fontSize=11;fontColor=#FFFFFF;fillColor=none;dashed=1;strokeWidth=3;align=right;labelPosition=left;verticalLabelPosition=top;verticalAlign=bottom;" parent="2" vertex="1">
                    <mxGeometry x="-79" y="121" width="249" height="389" as="geometry"/>
                </mxCell>
                <mxCell id="6" value="C" style="text;strokeColor=#005700;align=center;fillColor=#008a00;html=1;verticalAlign=middle;whiteSpace=wrap;rounded=0;labelBackgroundColor=none;fontSize=20;fontColor=#ffffff;" parent="2" vertex="1">
                    <mxGeometry x="-80" y="120" width="20" height="20" as="geometry"/>
                </mxCell>
                <mxCell id="55" value="&lt;font style=&quot;font-size: 11px;&quot;&gt;a) + #1：ログイン処理およびログイン成功時の初回処理(ロードマップリストの読み込み)&lt;/font&gt;" style="text;strokeColor=none;align=left;fillColor=none;html=1;verticalAlign=middle;whiteSpace=wrap;rounded=0;labelBackgroundColor=none;fontSize=10;" parent="2" vertex="1">
                    <mxGeometry x="-236" y="80" width="446" height="20" as="geometry"/>
                </mxCell>
                <mxCell id="56" value="" style="rounded=0;whiteSpace=wrap;html=1;labelBackgroundColor=none;strokeColor=#FF99CC;fontSize=11;fontColor=#FFFFFF;fillColor=none;dashed=1;container=0;" parent="2" vertex="1">
                    <mxGeometry x="-236" y="1487" width="460" height="667" as="geometry"/>
                </mxCell>
                <mxCell id="57" value="&lt;div style=&quot;&quot;&gt;&lt;br&gt;&lt;/div&gt;" style="rounded=0;whiteSpace=wrap;html=1;labelBackgroundColor=none;strokeColor=#009900;fontSize=11;fontColor=#FFFFFF;fillColor=none;dashed=1;strokeWidth=3;align=right;labelPosition=left;verticalLabelPosition=top;verticalAlign=bottom;" parent="2" vertex="1">
                    <mxGeometry x="-79" y="1525" width="249" height="389" as="geometry"/>
                </mxCell>
                <mxCell id="58" value="C" style="text;strokeColor=#005700;align=center;fillColor=#008a00;html=1;verticalAlign=middle;whiteSpace=wrap;rounded=0;labelBackgroundColor=none;fontSize=20;fontColor=#ffffff;" parent="2" vertex="1">
                    <mxGeometry x="-80" y="1524" width="20" height="20" as="geometry"/>
                </mxCell>
                <mxCell id="59" value="&lt;div style=&quot;&quot;&gt;&lt;br&gt;&lt;/div&gt;" style="rounded=0;whiteSpace=wrap;html=1;labelBackgroundColor=none;strokeColor=#009900;fontSize=11;fontColor=#FFFFFF;fillColor=none;dashed=1;strokeWidth=3;align=right;labelPosition=left;verticalLabelPosition=top;verticalAlign=bottom;" parent="2" vertex="1">
                    <mxGeometry x="-79" y="1935" width="249" height="170" as="geometry"/>
                </mxCell>
                <mxCell id="60" value="V" style="text;strokeColor=#005700;align=center;fillColor=#008a00;html=1;verticalAlign=middle;whiteSpace=wrap;rounded=0;labelBackgroundColor=none;fontSize=20;fontColor=#ffffff;" parent="2" vertex="1">
                    <mxGeometry x="-79" y="1935" width="20" height="20" as="geometry"/>
                </mxCell>
                <mxCell id="61" value="&lt;span style=&quot;font-size: 11px;&quot;&gt;c)：ログアウト処理&lt;/span&gt;" style="text;strokeColor=none;align=left;fillColor=none;html=1;verticalAlign=middle;whiteSpace=wrap;rounded=0;labelBackgroundColor=none;fontSize=10;" parent="2" vertex="1">
                    <mxGeometry x="-236" y="1484" width="116" height="20" as="geometry"/>
                </mxCell>
                <mxCell id="1" style="" parent="0"/>
                <mxCell id="5hx7r6OHmIrwXgIQcEw7-11" value="" style="group" parent="1" vertex="1" connectable="0">
                    <mxGeometry x="-260" y="-350" width="473.5" height="330" as="geometry"/>
                </mxCell>
                <mxCell id="wmis8DLoGKQjsyHZw0Ov-2" value="" style="rounded=1;whiteSpace=wrap;html=1;labelBackgroundColor=none;fillStyle=auto;strokeColor=#F0F0F0;fontFamily=Helvetica;fontSize=10;fontColor=#FFFFFF;fillColor=#808080;container=0;" parent="5hx7r6OHmIrwXgIQcEw7-11" vertex="1">
                    <mxGeometry width="460" height="330" as="geometry"/>
                </mxCell>
                <mxCell id="wmis8DLoGKQjsyHZw0Ov-3" value="" style="rounded=0;whiteSpace=wrap;html=1;labelBackgroundColor=none;strokeColor=#FF99CC;fontSize=11;fontColor=#FFFFFF;fillColor=none;dashed=1;container=0;" parent="5hx7r6OHmIrwXgIQcEw7-11" vertex="1">
                    <mxGeometry x="262" y="140" width="30" height="17" as="geometry"/>
                </mxCell>
                <mxCell id="wmis8DLoGKQjsyHZw0Ov-4" value="M or V or C" style="rounded=0;whiteSpace=wrap;html=1;labelBackgroundColor=none;strokeColor=#009900;fontSize=11;fontColor=#FFFFFF;fillColor=none;dashed=1;strokeWidth=2;container=0;" parent="5hx7r6OHmIrwXgIQcEw7-11" vertex="1">
                    <mxGeometry x="231" y="168" width="62.5" height="19" as="geometry"/>
                </mxCell>
                <mxCell id="wmis8DLoGKQjsyHZw0Ov-7" value="&lt;font color=&quot;#ffffff&quot;&gt;OOOServlet&lt;/font&gt;" style="rounded=0;whiteSpace=wrap;html=1;labelBackgroundColor=none;fillStyle=auto;strokeColor=#F0F0F0;fontFamily=Helvetica;fontSize=10;fontColor=#007FFF;fillColor=#0066CC;container=0;" parent="5hx7r6OHmIrwXgIQcEw7-11" vertex="1">
                    <mxGeometry x="10" y="87.5" width="70" height="15" as="geometry"/>
                </mxCell>
                <mxCell id="wmis8DLoGKQjsyHZw0Ov-8" value="：サーブレットクラス" style="text;strokeColor=none;align=left;fillColor=none;html=1;verticalAlign=middle;whiteSpace=wrap;rounded=0;labelBackgroundColor=none;container=0;" parent="5hx7r6OHmIrwXgIQcEw7-11" vertex="1">
                    <mxGeometry x="81" y="82" width="129" height="30" as="geometry"/>
                </mxCell>
                <mxCell id="wmis8DLoGKQjsyHZw0Ov-9" value="&lt;font color=&quot;#ffffff&quot;&gt;OOO.jsp&lt;/font&gt;" style="rounded=0;whiteSpace=wrap;html=1;labelBackgroundColor=none;fillStyle=auto;strokeColor=#F0F0F0;fontFamily=Helvetica;fontSize=10;fontColor=#007FFF;fillColor=#4D9900;container=0;" parent="5hx7r6OHmIrwXgIQcEw7-11" vertex="1">
                    <mxGeometry x="10" y="122.5" width="70" height="15" as="geometry"/>
                </mxCell>
                <mxCell id="wmis8DLoGKQjsyHZw0Ov-10" value="：JSPファイル" style="text;strokeColor=none;align=left;fillColor=none;html=1;verticalAlign=middle;whiteSpace=wrap;rounded=0;labelBackgroundColor=none;container=0;" parent="5hx7r6OHmIrwXgIQcEw7-11" vertex="1">
                    <mxGeometry x="81" y="115" width="129" height="30" as="geometry"/>
                </mxCell>
                <mxCell id="wmis8DLoGKQjsyHZw0Ov-11" value="&lt;font color=&quot;#ffffff&quot;&gt;R or S or A&lt;/font&gt;" style="rounded=0;whiteSpace=wrap;html=1;labelBackgroundColor=none;fillStyle=auto;strokeColor=#F0F0F0;fontFamily=Helvetica;fontSize=10;fontColor=#007FFF;fillColor=#999900;container=0;" parent="5hx7r6OHmIrwXgIQcEw7-11" vertex="1">
                    <mxGeometry x="10" y="277" width="70" height="15" as="geometry"/>
                </mxCell>
                <mxCell id="wmis8DLoGKQjsyHZw0Ov-12" value="：スコープ&lt;br&gt;(R：Request, S：Session, A：Application)" style="text;strokeColor=none;align=left;fillColor=none;html=1;verticalAlign=middle;whiteSpace=wrap;rounded=0;labelBackgroundColor=none;container=0;" parent="5hx7r6OHmIrwXgIQcEw7-11" vertex="1">
                    <mxGeometry x="82.5" y="277" width="149" height="43" as="geometry"/>
                </mxCell>
                <mxCell id="wmis8DLoGKQjsyHZw0Ov-13" value="GET" style="text;strokeColor=default;align=center;fillColor=none;html=1;verticalAlign=middle;whiteSpace=wrap;rounded=0;labelBackgroundColor=none;fontSize=10;container=0;" parent="5hx7r6OHmIrwXgIQcEw7-11" vertex="1">
                    <mxGeometry x="262.5" y="18.5" width="30" height="15" as="geometry"/>
                </mxCell>
                <mxCell id="wmis8DLoGKQjsyHZw0Ov-14" value="：処理内容&lt;br&gt;　(GET,、POST、レスポンス &lt;br&gt;　 フォワード、リダイレクト)" style="text;strokeColor=none;align=left;fillColor=none;html=1;verticalAlign=middle;whiteSpace=wrap;rounded=0;labelBackgroundColor=none;container=0;" parent="5hx7r6OHmIrwXgIQcEw7-11" vertex="1">
                    <mxGeometry x="291.5" y="12" width="180" height="55" as="geometry"/>
                </mxCell>
                <mxCell id="wmis8DLoGKQjsyHZw0Ov-15" value="" style="text;strokeColor=#990000;align=center;fillColor=none;html=1;verticalAlign=middle;whiteSpace=wrap;rounded=0;labelBackgroundColor=none;fontSize=10;dashed=1;strokeWidth=2;perimeterSpacing=0;dashPattern=1 1;glass=1;container=0;" parent="5hx7r6OHmIrwXgIQcEw7-11" vertex="1">
                    <mxGeometry x="262.5" y="75.5" width="30" height="15" as="geometry"/>
                </mxCell>
                <mxCell id="wmis8DLoGKQjsyHZw0Ov-16" value="：リクエストパラメータ" style="text;strokeColor=none;align=left;fillColor=none;html=1;verticalAlign=middle;whiteSpace=wrap;rounded=0;labelBackgroundColor=none;container=0;" parent="5hx7r6OHmIrwXgIQcEw7-11" vertex="1">
                    <mxGeometry x="291.5" y="69" width="180" height="28" as="geometry"/>
                </mxCell>
                <mxCell id="wmis8DLoGKQjsyHZw0Ov-17" value="" style="text;strokeColor=default;align=center;fillColor=none;html=1;verticalAlign=middle;whiteSpace=wrap;rounded=0;labelBackgroundColor=none;fontSize=10;dashed=1;strokeWidth=2;perimeterSpacing=0;dashPattern=1 1;glass=1;container=0;" parent="5hx7r6OHmIrwXgIQcEw7-11" vertex="1">
                    <mxGeometry x="262.5" y="109" width="30" height="15" as="geometry"/>
                </mxCell>
                <mxCell id="wmis8DLoGKQjsyHZw0Ov-18" value="：処理補足" style="text;strokeColor=none;align=left;fillColor=none;html=1;verticalAlign=middle;whiteSpace=wrap;rounded=0;labelBackgroundColor=none;container=0;" parent="5hx7r6OHmIrwXgIQcEw7-11" vertex="1">
                    <mxGeometry x="291.5" y="102" width="180" height="28" as="geometry"/>
                </mxCell>
                <mxCell id="wmis8DLoGKQjsyHZw0Ov-19" value="：パラメータの&lt;br&gt;　スコープへの保存と取出" style="text;strokeColor=none;align=left;fillColor=none;html=1;verticalAlign=middle;whiteSpace=wrap;rounded=0;labelBackgroundColor=none;container=0;" parent="5hx7r6OHmIrwXgIQcEw7-11" vertex="1">
                    <mxGeometry x="81" y="50" width="169" height="30" as="geometry"/>
                </mxCell>
                <mxCell id="wmis8DLoGKQjsyHZw0Ov-20" value="" style="endArrow=async;html=1;rounded=0;shadow=1;labelBackgroundColor=default;strokeColor=#82b366;fontFamily=Helvetica;fontSize=10;fontColor=#FFFFFF;shape=connector;strokeWidth=1;startArrow=none;startFill=0;fillColor=#d5e8d4;jumpStyle=line;jumpSize=10;entryX=0;entryY=0.25;entryDx=0;entryDy=0;dashed=1;endFill=1;" parent="5hx7r6OHmIrwXgIQcEw7-11" edge="1">
                    <mxGeometry width="50" height="50" relative="1" as="geometry">
                        <mxPoint x="14" y="58" as="sourcePoint"/>
                        <mxPoint x="76" y="58.875" as="targetPoint"/>
                    </mxGeometry>
                </mxCell>
                <mxCell id="wmis8DLoGKQjsyHZw0Ov-21" value="：機能ごとの括り" style="text;strokeColor=none;align=left;fillColor=none;html=1;verticalAlign=middle;whiteSpace=wrap;rounded=0;labelBackgroundColor=none;container=0;" parent="5hx7r6OHmIrwXgIQcEw7-11" vertex="1">
                    <mxGeometry x="292.5" y="133.5" width="180" height="28" as="geometry"/>
                </mxCell>
                <mxCell id="wmis8DLoGKQjsyHZw0Ov-22" value="：処理領域ごとの括り&lt;br&gt;　M：モデル層&lt;br&gt;　V：ビュー層&lt;br&gt;　C：コントローラ層" style="text;strokeColor=none;align=left;fillColor=none;html=1;verticalAlign=middle;whiteSpace=wrap;rounded=0;labelBackgroundColor=none;container=0;" parent="5hx7r6OHmIrwXgIQcEw7-11" vertex="1">
                    <mxGeometry x="293.5" y="148" width="180" height="102" as="geometry"/>
                </mxCell>
                <mxCell id="wmis8DLoGKQjsyHZw0Ov-23" value="" style="endArrow=classic;startArrow=classic;html=1;rounded=0;fontSize=10;jumpStyle=line;jumpSize=10;strokeWidth=3;" parent="5hx7r6OHmIrwXgIQcEw7-11" edge="1">
                    <mxGeometry width="50" height="50" relative="1" as="geometry">
                        <mxPoint x="11" y="26" as="sourcePoint"/>
                        <mxPoint x="80" y="26" as="targetPoint"/>
                    </mxGeometry>
                </mxCell>
                <mxCell id="wmis8DLoGKQjsyHZw0Ov-24" value="：データベースとの連係" style="text;strokeColor=none;align=left;fillColor=none;html=1;verticalAlign=middle;whiteSpace=wrap;rounded=0;labelBackgroundColor=none;container=0;" parent="5hx7r6OHmIrwXgIQcEw7-11" vertex="1">
                    <mxGeometry x="81" y="20" width="159" height="13" as="geometry"/>
                </mxCell>
                <mxCell id="5hx7r6OHmIrwXgIQcEw7-1" value="&lt;font color=&quot;#ffffff&quot;&gt;BO&lt;/font&gt;" style="rounded=0;whiteSpace=wrap;html=1;labelBackgroundColor=none;fillStyle=auto;strokeColor=#3700CC;fontFamily=Helvetica;fontSize=10;fontColor=#ffffff;fillColor=#6a00ff;container=0;" parent="5hx7r6OHmIrwXgIQcEw7-11" vertex="1">
                    <mxGeometry x="10" y="159.5" width="70" height="15" as="geometry"/>
                </mxCell>
                <mxCell id="5hx7r6OHmIrwXgIQcEw7-2" value="：BO(business Object)&lt;br&gt;　サービス層の動き" style="text;strokeColor=none;align=left;fillColor=none;html=1;verticalAlign=middle;whiteSpace=wrap;rounded=0;labelBackgroundColor=none;container=0;" parent="5hx7r6OHmIrwXgIQcEw7-11" vertex="1">
                    <mxGeometry x="81" y="158" width="129" height="30" as="geometry"/>
                </mxCell>
                <mxCell id="5hx7r6OHmIrwXgIQcEw7-3" value="&lt;font color=&quot;#ffffff&quot;&gt;DAO&lt;/font&gt;" style="rounded=0;whiteSpace=wrap;html=1;labelBackgroundColor=none;fillStyle=auto;strokeColor=#6F0000;fontFamily=Helvetica;fontSize=10;fontColor=#ffffff;fillColor=#a20025;container=0;" parent="5hx7r6OHmIrwXgIQcEw7-11" vertex="1">
                    <mxGeometry x="10" y="194.5" width="70" height="15" as="geometry"/>
                </mxCell>
                <mxCell id="5hx7r6OHmIrwXgIQcEw7-4" value="：DAO&lt;br&gt;　(Database Access Object)" style="text;strokeColor=none;align=left;fillColor=none;html=1;verticalAlign=middle;whiteSpace=wrap;rounded=0;labelBackgroundColor=none;container=0;" parent="5hx7r6OHmIrwXgIQcEw7-11" vertex="1">
                    <mxGeometry x="81" y="193" width="169" height="30" as="geometry"/>
                </mxCell>
                <mxCell id="wh2zpdDx1nXNKpHRa-gx-10" value="&lt;font color=&quot;#ffffff&quot;&gt;OO&lt;/font&gt;" style="rounded=0;whiteSpace=wrap;html=1;labelBackgroundColor=none;fillStyle=auto;strokeColor=#C73500;fontFamily=Helvetica;fontSize=10;fillColor=#fa6800;container=0;fontColor=#000000;" parent="5hx7r6OHmIrwXgIQcEw7-11" vertex="1">
                    <mxGeometry x="10" y="228.5" width="70" height="15" as="geometry"/>
                </mxCell>
                <mxCell id="wh2zpdDx1nXNKpHRa-gx-11" value="：その他のクラス&lt;br&gt;　(サービス層、&lt;br&gt;　インフラストラクチャ層)" style="text;strokeColor=none;align=left;fillColor=none;html=1;verticalAlign=middle;whiteSpace=wrap;rounded=0;labelBackgroundColor=none;container=0;" parent="5hx7r6OHmIrwXgIQcEw7-11" vertex="1">
                    <mxGeometry x="81" y="227" width="169" height="43" as="geometry"/>
                </mxCell>
                <mxCell id="a5_OBN1E9PMsQF6P77if-1" value="&lt;u&gt;①ログイン・ログアウト機能&lt;/u&gt;" style="rounded=1;whiteSpace=wrap;html=1;labelBackgroundColor=none;strokeColor=default;fontSize=11;fontColor=#FFFFFF;fillColor=#808080;" parent="1" vertex="1">
                    <mxGeometry x="-260" y="20" width="150" height="40" as="geometry"/>
                </mxCell>
                <mxCell id="wh2zpdDx1nXNKpHRa-gx-26" style="edgeStyle=none;html=1;exitX=0;exitY=0.75;exitDx=0;exitDy=0;" parent="1" source="wh2zpdDx1nXNKpHRa-gx-21" edge="1">
                    <mxGeometry relative="1" as="geometry">
                        <mxPoint x="70" y="1017.3333333333335" as="targetPoint"/>
                    </mxGeometry>
                </mxCell>
                <mxCell id="wh2zpdDx1nXNKpHRa-gx-28" style="edgeStyle=none;html=1;entryX=0;entryY=0.25;entryDx=0;entryDy=0;" parent="1" target="wh2zpdDx1nXNKpHRa-gx-21" edge="1">
                    <mxGeometry relative="1" as="geometry">
                        <mxPoint x="80" y="1027.3333333333335" as="targetPoint"/>
                        <mxPoint x="70" y="1005" as="sourcePoint"/>
                    </mxGeometry>
                </mxCell>
                <mxCell id="wh2zpdDx1nXNKpHRa-gx-114" style="edgeStyle=none;html=1;exitX=0;exitY=0.75;exitDx=0;exitDy=0;" parent="1" source="wh2zpdDx1nXNKpHRa-gx-109" edge="1">
                    <mxGeometry relative="1" as="geometry">
                        <mxPoint x="70" y="1129" as="targetPoint"/>
                    </mxGeometry>
                </mxCell>
                <mxCell id="wh2zpdDx1nXNKpHRa-gx-115" style="edgeStyle=none;html=1;entryX=0;entryY=0.25;entryDx=0;entryDy=0;" parent="1" target="wh2zpdDx1nXNKpHRa-gx-109" edge="1">
                    <mxGeometry relative="1" as="geometry">
                        <mxPoint x="80" y="1139" as="targetPoint"/>
                        <mxPoint x="70" y="1116" as="sourcePoint"/>
                    </mxGeometry>
                </mxCell>
                <mxCell id="j5RhbKur-_uXeyD1amHB-10" value="" style="group" parent="1" vertex="1" connectable="0">
                    <mxGeometry x="-236" y="1480" width="1256" height="674" as="geometry"/>
                </mxCell>
                <mxCell id="j5RhbKur-_uXeyD1amHB-31" style="edgeStyle=none;html=1;entryX=0;entryY=0.5;entryDx=0;entryDy=0;fontSize=10;fillColor=none;" parent="j5RhbKur-_uXeyD1amHB-10" target="j5RhbKur-_uXeyD1amHB-21" edge="1">
                    <mxGeometry relative="1" as="geometry">
                        <mxPoint x="36" y="97" as="sourcePoint"/>
                        <mxPoint x="130" y="104" as="targetPoint"/>
                    </mxGeometry>
                </mxCell>
                <mxCell id="j5RhbKur-_uXeyD1amHB-36" style="edgeStyle=none;rounded=0;html=1;exitX=0;exitY=0.5;exitDx=0;exitDy=0;fontSize=11;fontColor=#000000;entryX=0.029;entryY=0.877;entryDx=0;entryDy=0;entryPerimeter=0;" parent="j5RhbKur-_uXeyD1amHB-10" source="j5RhbKur-_uXeyD1amHB-48" edge="1">
                    <mxGeometry relative="1" as="geometry">
                        <mxPoint x="36.42399999999998" y="551.9589999999998" as="targetPoint"/>
                    </mxGeometry>
                </mxCell>
                <mxCell id="j5RhbKur-_uXeyD1amHB-40" value="" style="endArrow=async;html=1;rounded=0;shadow=1;labelBackgroundColor=default;strokeColor=#82b366;fontFamily=Helvetica;fontSize=10;fontColor=#FFFFFF;shape=connector;strokeWidth=1;startArrow=none;startFill=0;fillColor=#d5e8d4;jumpStyle=line;jumpSize=10;entryX=1;entryY=0.25;entryDx=0;entryDy=0;dashed=1;endFill=1;" parent="j5RhbKur-_uXeyD1amHB-10" target="j5RhbKur-_uXeyD1amHB-3" edge="1">
                    <mxGeometry width="50" height="50" relative="1" as="geometry">
                        <mxPoint x="252" y="110" as="sourcePoint"/>
                        <mxPoint x="112.25000000000068" y="384" as="targetPoint"/>
                        <Array as="points">
                            <mxPoint x="252" y="200"/>
                        </Array>
                    </mxGeometry>
                </mxCell>
                <mxCell id="KnGc33RcEMqg0omHk_eF-12" style="edgeStyle=none;rounded=0;html=1;exitX=0.75;exitY=1;exitDx=0;exitDy=0;entryX=1;entryY=1;entryDx=0;entryDy=0;" parent="j5RhbKur-_uXeyD1amHB-10" source="KnGc33RcEMqg0omHk_eF-9" target="j5RhbKur-_uXeyD1amHB-49" edge="1">
                    <mxGeometry relative="1" as="geometry"/>
                </mxCell>
                <mxCell id="j5RhbKur-_uXeyD1amHB-3" value="&lt;font color=&quot;#ffffff&quot;&gt;S：&lt;br&gt;*&lt;br&gt;&lt;/font&gt;" style="rounded=0;whiteSpace=wrap;html=1;labelBackgroundColor=none;fillStyle=auto;strokeColor=#F0F0F0;fontFamily=Helvetica;fontSize=10;fontColor=#007FFF;fillColor=#999900;align=left;" parent="j5RhbKur-_uXeyD1amHB-10" vertex="1">
                    <mxGeometry x="88.5" y="190" width="35" height="31.5" as="geometry"/>
                </mxCell>
                <mxCell id="j5RhbKur-_uXeyD1amHB-5" value="" style="shape=mxgraph.mockup.markup.redX;fillColor=#ff0000;html=1;shadow=0;strokeColor=none;fontFamily=Helvetica;fontSize=11;fontColor=default;" parent="j5RhbKur-_uXeyD1amHB-10" vertex="1">
                    <mxGeometry x="86" y="202.5" width="40" height="19" as="geometry"/>
                </mxCell>
                <mxCell id="j5RhbKur-_uXeyD1amHB-2" value="GET" style="text;strokeColor=default;align=center;fillColor=none;html=1;verticalAlign=middle;whiteSpace=wrap;rounded=0;labelBackgroundColor=none;fontSize=10;fontFamily=Helvetica;fontColor=default;" parent="j5RhbKur-_uXeyD1amHB-10" vertex="1">
                    <mxGeometry x="96" y="78" width="30" height="15" as="geometry"/>
                </mxCell>
                <mxCell id="j5RhbKur-_uXeyD1amHB-20" value="" style="group" parent="j5RhbKur-_uXeyD1amHB-10" vertex="1" connectable="0">
                    <mxGeometry x="236" y="64" width="90" height="45" as="geometry"/>
                </mxCell>
                <mxCell id="j5RhbKur-_uXeyD1amHB-21" value="&lt;span style=&quot;color: rgb(255, 255, 255);&quot;&gt;LogoutServlet&lt;/span&gt;&lt;font color=&quot;#ffffff&quot;&gt;&lt;br&gt;doGet()&lt;br&gt;&lt;/font&gt;" style="rounded=0;whiteSpace=wrap;html=1;labelBackgroundColor=none;fillStyle=auto;strokeColor=#F0F0F0;fontFamily=Helvetica;fontSize=10;fontColor=#007FFF;fillColor=#0066CC;" parent="j5RhbKur-_uXeyD1amHB-20" vertex="1">
                    <mxGeometry y="20" width="90" height="25" as="geometry"/>
                </mxCell>
                <mxCell id="j5RhbKur-_uXeyD1amHB-22" value="&lt;span style=&quot;font-size: 11px;&quot;&gt;Servlet&lt;/span&gt;" style="text;strokeColor=none;align=left;fillColor=none;html=1;verticalAlign=middle;whiteSpace=wrap;rounded=0;labelBackgroundColor=none;fontSize=10;" parent="j5RhbKur-_uXeyD1amHB-20" vertex="1">
                    <mxGeometry x="17" width="46" height="20" as="geometry"/>
                </mxCell>
                <mxCell id="KnGc33RcEMqg0omHk_eF-8" value="" style="group" parent="j5RhbKur-_uXeyD1amHB-10" vertex="1" connectable="0">
                    <mxGeometry x="236.5" y="250" width="90" height="45" as="geometry"/>
                </mxCell>
                <mxCell id="KnGc33RcEMqg0omHk_eF-9" value="&lt;span style=&quot;color: rgb(255, 255, 255);&quot;&gt;LoginServlet&lt;/span&gt;&lt;font color=&quot;#ffffff&quot;&gt;&lt;br&gt;doGet()&lt;br&gt;&lt;/font&gt;" style="rounded=0;whiteSpace=wrap;html=1;labelBackgroundColor=none;fillStyle=auto;strokeColor=#F0F0F0;fontFamily=Helvetica;fontSize=10;fontColor=#007FFF;fillColor=#0066CC;" parent="KnGc33RcEMqg0omHk_eF-8" vertex="1">
                    <mxGeometry y="20" width="90" height="25" as="geometry"/>
                </mxCell>
                <mxCell id="KnGc33RcEMqg0omHk_eF-10" value="&lt;span style=&quot;font-size: 11px;&quot;&gt;Servlet&lt;/span&gt;" style="text;strokeColor=none;align=left;fillColor=none;html=1;verticalAlign=middle;whiteSpace=wrap;rounded=0;labelBackgroundColor=none;fontSize=10;" parent="KnGc33RcEMqg0omHk_eF-8" vertex="1">
                    <mxGeometry x="17" width="46" height="20" as="geometry"/>
                </mxCell>
                <mxCell id="j5RhbKur-_uXeyD1amHB-88" style="edgeStyle=none;html=1;exitX=0.75;exitY=1;exitDx=0;exitDy=0;entryX=0.75;entryY=0;entryDx=0;entryDy=0;" parent="j5RhbKur-_uXeyD1amHB-10" source="j5RhbKur-_uXeyD1amHB-21" target="KnGc33RcEMqg0omHk_eF-9" edge="1">
                    <mxGeometry relative="1" as="geometry">
                        <mxPoint x="304" y="230" as="targetPoint"/>
                    </mxGeometry>
                </mxCell>
                <mxCell id="j5RhbKur-_uXeyD1amHB-7" value="リダイレクト" style="text;strokeColor=default;align=center;fillColor=none;html=1;verticalAlign=middle;whiteSpace=wrap;rounded=0;labelBackgroundColor=none;fontSize=10;" parent="j5RhbKur-_uXeyD1amHB-10" vertex="1">
                    <mxGeometry x="308" y="230" width="63" height="15" as="geometry"/>
                </mxCell>
                <mxCell id="j5RhbKur-_uXeyD1amHB-6" value="破棄" style="text;strokeColor=none;align=center;fillColor=none;html=1;verticalAlign=middle;whiteSpace=wrap;rounded=0;labelBackgroundColor=none;" parent="j5RhbKur-_uXeyD1amHB-10" vertex="1">
                    <mxGeometry x="206" y="180" width="41" height="20" as="geometry"/>
                </mxCell>
                <mxCell id="KnGc33RcEMqg0omHk_eF-6" value="フォワード" style="text;strokeColor=default;align=center;fillColor=none;html=1;verticalAlign=middle;whiteSpace=wrap;rounded=0;labelBackgroundColor=none;fontSize=10;" parent="j5RhbKur-_uXeyD1amHB-10" vertex="1">
                    <mxGeometry x="311" y="390" width="60" height="15" as="geometry"/>
                </mxCell>
                <mxCell id="j5RhbKur-_uXeyD1amHB-47" value="" style="group" parent="j5RhbKur-_uXeyD1amHB-10" vertex="1" connectable="0">
                    <mxGeometry x="251" y="519.75" width="80" height="39.5" as="geometry"/>
                </mxCell>
                <mxCell id="j5RhbKur-_uXeyD1amHB-48" value="&lt;span style=&quot;color: rgb(255, 255, 255);&quot;&gt;index.jsp&lt;/span&gt;" style="rounded=0;whiteSpace=wrap;html=1;labelBackgroundColor=none;fillStyle=auto;strokeColor=#F0F0F0;fontFamily=Helvetica;fontSize=10;fontColor=#007FFF;fillColor=#4D9900;" parent="j5RhbKur-_uXeyD1amHB-47" vertex="1">
                    <mxGeometry y="24.5" width="80" height="15" as="geometry"/>
                </mxCell>
                <mxCell id="j5RhbKur-_uXeyD1amHB-49" value="&lt;span style=&quot;font-size: 11px;&quot;&gt;JSP&lt;/span&gt;" style="text;strokeColor=none;align=left;fillColor=none;html=1;verticalAlign=middle;whiteSpace=wrap;rounded=0;labelBackgroundColor=none;fontSize=10;" parent="j5RhbKur-_uXeyD1amHB-47" vertex="1">
                    <mxGeometry x="25" y="4.5" width="30" height="20" as="geometry"/>
                </mxCell>
                <mxCell id="xRWxr1PVBFxaZHvYKtIR-22" value="" style="endArrow=classic;html=1;" parent="1" edge="1">
                    <mxGeometry width="50" height="50" relative="1" as="geometry">
                        <mxPoint x="614.9999999999995" y="595" as="sourcePoint"/>
                        <mxPoint x="614.9999999999995" y="595" as="targetPoint"/>
                    </mxGeometry>
                </mxCell>
                <mxCell id="xRWxr1PVBFxaZHvYKtIR-33" value="POST" style="text;strokeColor=default;align=center;fillColor=none;html=1;verticalAlign=middle;whiteSpace=wrap;rounded=0;labelBackgroundColor=none;fontSize=10;" parent="1" vertex="1">
                    <mxGeometry x="-140" y="152.4999999999999" width="30" height="15" as="geometry"/>
                </mxCell>
                <mxCell id="xRWxr1PVBFxaZHvYKtIR-34" value="userId=入力値&lt;br&gt;pass=入力値" style="text;strokeColor=#990000;align=center;fillColor=none;html=1;verticalAlign=middle;whiteSpace=wrap;rounded=0;labelBackgroundColor=none;fontSize=10;dashed=1;strokeWidth=2;perimeterSpacing=0;dashPattern=1 1;glass=1;" parent="1" vertex="1">
                    <mxGeometry x="-160.75" y="180" width="71.5" height="25.5" as="geometry"/>
                </mxCell>
                <mxCell id="Tw5lKN1PnHhC35xMCb-A-4" style="edgeStyle=none;html=1;entryX=0;entryY=0.5;entryDx=0;entryDy=0;fontSize=10;fillColor=none;" parent="1" edge="1">
                    <mxGeometry relative="1" as="geometry">
                        <mxPoint x="-200" y="173" as="sourcePoint"/>
                        <mxPoint y="172.5" as="targetPoint"/>
                    </mxGeometry>
                </mxCell>
                <mxCell id="Tw5lKN1PnHhC35xMCb-A-12" style="edgeStyle=none;rounded=0;html=1;exitX=1;exitY=0.25;exitDx=0;exitDy=0;fontSize=11;entryX=0;entryY=0.25;entryDx=0;entryDy=0;" parent="1" target="Tw5lKN1PnHhC35xMCb-A-10" edge="1">
                    <mxGeometry relative="1" as="geometry">
                        <mxPoint x="360" y="180" as="targetPoint"/>
                        <mxPoint x="80" y="166.25" as="sourcePoint"/>
                    </mxGeometry>
                </mxCell>
                <mxCell id="Tw5lKN1PnHhC35xMCb-A-13" value="&lt;span style=&quot;font-size: 11px;&quot;&gt;Login&lt;/span&gt;" style="text;strokeColor=none;align=left;fillColor=none;html=1;verticalAlign=middle;whiteSpace=wrap;rounded=0;labelBackgroundColor=none;fontSize=10;" parent="1" vertex="1">
                    <mxGeometry x="315" y="147.5" width="30" height="20" as="geometry"/>
                </mxCell>
                <mxCell id="Tw5lKN1PnHhC35xMCb-A-21" style="edgeStyle=none;rounded=0;html=1;exitX=0;exitY=0.75;exitDx=0;exitDy=0;entryX=1;entryY=0.75;entryDx=0;entryDy=0;fontSize=11;fontColor=#000000;" parent="1" source="Tw5lKN1PnHhC35xMCb-A-10" edge="1">
                    <mxGeometry relative="1" as="geometry">
                        <mxPoint x="80" y="178.75" as="targetPoint"/>
                    </mxGeometry>
                </mxCell>
                <mxCell id="Tw5lKN1PnHhC35xMCb-A-22" value="&lt;span style=&quot;font-size: 11px;&quot;&gt;該当：true&lt;br&gt;非該当：false&lt;br&gt;&lt;/span&gt;" style="text;strokeColor=none;align=left;fillColor=none;html=1;verticalAlign=middle;whiteSpace=wrap;rounded=0;labelBackgroundColor=none;fontSize=10;" parent="1" vertex="1">
                    <mxGeometry x="293.5" y="185.5" width="73" height="20" as="geometry"/>
                </mxCell>
                <mxCell id="Tw5lKN1PnHhC35xMCb-A-34" value="" style="group" parent="1" vertex="1" connectable="0">
                    <mxGeometry x="290" y="76" width="80.13" height="72.5" as="geometry"/>
                </mxCell>
                <mxCell id="CzOwBbvjg2nErT3-Nfvz-2" value="&lt;font color=&quot;#000000&quot;&gt;&lt;br&gt;&lt;/font&gt;" style="shape=callout;whiteSpace=wrap;html=1;perimeter=calloutPerimeter;fontSize=11;fillColor=#dae8fc;strokeColor=#6c8ebf;base=13;position2=0.47;size=30;position=0.47;align=left;" parent="Tw5lKN1PnHhC35xMCb-A-34" vertex="1">
                    <mxGeometry y="1.7682926829268293" width="80" height="70.73170731707317" as="geometry"/>
                </mxCell>
                <mxCell id="Tw5lKN1PnHhC35xMCb-A-33" value="&lt;font style=&quot;font-size: 10px;&quot;&gt;[フィールド]&lt;br style=&quot;&quot;&gt;String userId&lt;br style=&quot;&quot;&gt;String pass&lt;/font&gt;" style="text;strokeColor=none;align=left;fillColor=none;html=1;verticalAlign=middle;whiteSpace=wrap;rounded=0;labelBackgroundColor=none;fontSize=10;fontColor=#000000;" parent="Tw5lKN1PnHhC35xMCb-A-34" vertex="1">
                    <mxGeometry y="2" width="80" height="39.295392953929536" as="geometry"/>
                </mxCell>
                <mxCell id="Tw5lKN1PnHhC35xMCb-A-51" style="edgeStyle=none;rounded=0;html=1;exitX=0.5;exitY=1;exitDx=0;exitDy=0;entryX=0.75;entryY=0;entryDx=0;entryDy=0;fontSize=11;fontColor=#000000;fillColor=none;" parent="1" target="Tw5lKN1PnHhC35xMCb-A-48" edge="1">
                    <mxGeometry relative="1" as="geometry">
                        <mxPoint x="119.5" y="435" as="sourcePoint"/>
                    </mxGeometry>
                </mxCell>
                <mxCell id="Tw5lKN1PnHhC35xMCb-A-52" style="edgeStyle=none;rounded=0;html=1;exitX=0;exitY=0.5;exitDx=0;exitDy=0;fontSize=11;fontColor=#000000;" parent="1" source="Tw5lKN1PnHhC35xMCb-A-48" edge="1">
                    <mxGeometry relative="1" as="geometry">
                        <mxPoint x="-200" y="722" as="targetPoint"/>
                    </mxGeometry>
                </mxCell>
                <mxCell id="Tw5lKN1PnHhC35xMCb-A-53" style="edgeStyle=none;rounded=0;html=1;exitX=0;exitY=0.5;exitDx=0;exitDy=0;fontSize=11;fontColor=#000000;" parent="1" source="Tw5lKN1PnHhC35xMCb-A-45" edge="1">
                    <mxGeometry relative="1" as="geometry">
                        <mxPoint x="-200" y="658" as="targetPoint"/>
                    </mxGeometry>
                </mxCell>
                <mxCell id="Tw5lKN1PnHhC35xMCb-A-60" value="" style="endArrow=async;html=1;rounded=0;shadow=1;labelBackgroundColor=default;strokeColor=#82b366;fontFamily=Helvetica;fontSize=10;fontColor=#FFFFFF;shape=connector;strokeWidth=1;startArrow=none;startFill=0;fillColor=#d5e8d4;jumpStyle=line;jumpSize=10;entryX=0;entryY=0.5;entryDx=0;entryDy=0;dashed=1;endFill=1;exitX=0.75;exitY=0;exitDx=0;exitDy=0;" parent="1" target="Tw5lKN1PnHhC35xMCb-A-54" edge="1">
                    <mxGeometry width="50" height="50" relative="1" as="geometry">
                        <mxPoint x="137.625" y="410" as="sourcePoint"/>
                        <mxPoint x="247.75" y="300.875" as="targetPoint"/>
                        <Array as="points">
                            <mxPoint x="138" y="342"/>
                        </Array>
                    </mxGeometry>
                </mxCell>
                <mxCell id="Tw5lKN1PnHhC35xMCb-A-61" style="edgeStyle=none;rounded=0;html=1;exitX=1;exitY=0.25;exitDx=0;exitDy=0;entryX=0;entryY=0.25;entryDx=0;entryDy=0;fontSize=11;fontColor=#000000;" parent="1" target="Tw5lKN1PnHhC35xMCb-A-59" edge="1">
                    <mxGeometry relative="1" as="geometry">
                        <mxPoint x="155.75" y="416.25" as="sourcePoint"/>
                    </mxGeometry>
                </mxCell>
                <mxCell id="Tw5lKN1PnHhC35xMCb-A-62" style="edgeStyle=none;rounded=0;html=1;exitX=0;exitY=0.75;exitDx=0;exitDy=0;entryX=1;entryY=0.75;entryDx=0;entryDy=0;fontSize=11;fontColor=#000000;" parent="1" source="Tw5lKN1PnHhC35xMCb-A-59" edge="1">
                    <mxGeometry relative="1" as="geometry">
                        <mxPoint x="155.75" y="428.75" as="targetPoint"/>
                    </mxGeometry>
                </mxCell>
                <mxCell id="Tw5lKN1PnHhC35xMCb-A-68" value="&lt;span style=&quot;font-size: 11px;&quot;&gt;Login&lt;/span&gt;" style="text;strokeColor=none;align=left;fillColor=none;html=1;verticalAlign=middle;whiteSpace=wrap;rounded=0;labelBackgroundColor=none;fontSize=10;" parent="1" vertex="1">
                    <mxGeometry x="315" y="392.25" width="30" height="20" as="geometry"/>
                </mxCell>
                <mxCell id="Tw5lKN1PnHhC35xMCb-A-69" value="&lt;span style=&quot;font-size: 11px;&quot;&gt;ArrayList&amp;lt;Roadmap&amp;gt;&lt;br&gt;&lt;/span&gt;" style="text;strokeColor=none;align=left;fillColor=none;html=1;verticalAlign=middle;whiteSpace=wrap;rounded=0;labelBackgroundColor=none;fontSize=10;" parent="1" vertex="1">
                    <mxGeometry x="278.78" y="430" width="102.44" height="20" as="geometry"/>
                </mxCell>
                <mxCell id="MwLqjNubVIBEys4BjLwC-21" value="" style="group" parent="1" vertex="1" connectable="0">
                    <mxGeometry x="913.5" y="380" width="73" height="111.75" as="geometry"/>
                </mxCell>
                <mxCell id="MwLqjNubVIBEys4BjLwC-7" value="" style="shape=cylinder3;whiteSpace=wrap;html=1;boundedLbl=1;backgroundOutline=1;size=15;fontSize=11;fillColor=#f5f5f5;fontColor=#333333;strokeColor=#666666;" parent="MwLqjNubVIBEys4BjLwC-21" vertex="1">
                    <mxGeometry x="6.5" width="60" height="80" as="geometry"/>
                </mxCell>
                <mxCell id="MwLqjNubVIBEys4BjLwC-8" value="&lt;span style=&quot;font-size: 11px;&quot;&gt;PARENT_ELEMENTS&lt;br&gt;テーブル&lt;br&gt;&lt;/span&gt;" style="text;strokeColor=none;align=center;fillColor=none;html=1;verticalAlign=middle;whiteSpace=wrap;rounded=0;labelBackgroundColor=none;fontSize=10;" parent="MwLqjNubVIBEys4BjLwC-21" vertex="1">
                    <mxGeometry y="87.75" width="73" height="20" as="geometry"/>
                </mxCell>
                <mxCell id="Tw5lKN1PnHhC35xMCb-A-54" value="&lt;font color=&quot;#ffffff&quot;&gt;S：&lt;br&gt;&lt;/font&gt;&lt;span style=&quot;color: rgb(255, 255, 255);&quot;&gt;&quot;userId&quot; 入力値のuserId&lt;br&gt;&quot;roadmaps&quot; userIdに紐づくArrayList&amp;lt;Roadmap&amp;gt;&lt;br&gt;&lt;/span&gt;" style="rounded=0;whiteSpace=wrap;html=1;labelBackgroundColor=none;fillStyle=auto;strokeColor=#F0F0F0;fontFamily=Helvetica;fontSize=10;fontColor=#007FFF;fillColor=#999900;align=left;" parent="1" vertex="1">
                    <mxGeometry x="200" y="325" width="220" height="33.75" as="geometry"/>
                </mxCell>
                <mxCell id="mUfy5AxHrcMVjJl0wBxt-11" value="" style="endArrow=async;html=1;rounded=0;shadow=1;labelBackgroundColor=default;strokeColor=#82b366;fontFamily=Helvetica;fontSize=10;fontColor=#FFFFFF;shape=connector;strokeWidth=1;startArrow=none;startFill=0;fillColor=#d5e8d4;jumpStyle=line;jumpSize=10;entryX=1;entryY=0.5;entryDx=0;entryDy=0;dashed=1;endFill=1;exitX=0.25;exitY=1;exitDx=0;exitDy=0;" parent="1" source="Tw5lKN1PnHhC35xMCb-A-54" target="Tw5lKN1PnHhC35xMCb-A-48" edge="1">
                    <mxGeometry width="50" height="50" relative="1" as="geometry">
                        <mxPoint x="205.75" y="560" as="sourcePoint"/>
                        <mxPoint x="267.75" y="560.875" as="targetPoint"/>
                        <Array as="points">
                            <mxPoint x="255" y="390"/>
                            <mxPoint x="200" y="390"/>
                            <mxPoint x="200" y="720"/>
                        </Array>
                    </mxGeometry>
                </mxCell>
                <mxCell id="XFtxbLRGI5h6IF-Y_2xD-1" style="edgeStyle=none;rounded=0;html=1;exitX=0.25;exitY=1;exitDx=0;exitDy=0;entryX=0.75;entryY=0;entryDx=0;entryDy=0;fontSize=11;fontColor=#000000;fillColor=none;" parent="1" target="Tw5lKN1PnHhC35xMCb-A-45" edge="1">
                    <mxGeometry relative="1" as="geometry">
                        <mxPoint x="20" y="185" as="sourcePoint"/>
                    </mxGeometry>
                </mxCell>
                <mxCell id="XFtxbLRGI5h6IF-Y_2xD-2" value="&lt;font color=&quot;#ffffff&quot;&gt;R：&lt;br&gt;&quot;errorMsg&quot;&amp;nbsp;&lt;/font&gt;&lt;span style=&quot;color: rgb(255, 255, 255);&quot;&gt;エラーメッセージ&lt;/span&gt;" style="rounded=0;whiteSpace=wrap;html=1;labelBackgroundColor=none;fillStyle=auto;strokeColor=#F0F0F0;fontFamily=Helvetica;fontSize=10;fontColor=#007FFF;fillColor=#999900;align=left;" parent="1" vertex="1">
                    <mxGeometry x="-227.25" y="460" width="138" height="21.5" as="geometry"/>
                </mxCell>
                <mxCell id="y_gbYHGOkGPl-Gcg3ohX-6" value="" style="endArrow=async;html=1;rounded=0;shadow=1;labelBackgroundColor=default;strokeColor=#82b366;fontFamily=Helvetica;fontSize=10;fontColor=#FFFFFF;shape=connector;strokeWidth=1;startArrow=none;startFill=0;fillColor=#d5e8d4;jumpStyle=line;jumpSize=10;entryX=0.75;entryY=0;entryDx=0;entryDy=0;dashed=1;endFill=1;exitX=0.197;exitY=1.003;exitDx=0;exitDy=0;exitPerimeter=0;" parent="1" target="XFtxbLRGI5h6IF-Y_2xD-2" edge="1">
                    <mxGeometry width="50" height="50" relative="1" as="geometry">
                        <mxPoint x="15.759999999999991" y="185.07500000000005" as="sourcePoint"/>
                        <mxPoint x="-138" y="336.87500000000034" as="targetPoint"/>
                        <Array as="points">
                            <mxPoint x="16" y="280"/>
                            <mxPoint x="-124" y="280"/>
                        </Array>
                    </mxGeometry>
                </mxCell>
                <mxCell id="SinUWhQWTH323fvEsbH5-3" value="" style="group" parent="1" vertex="1" connectable="0">
                    <mxGeometry x="914.5" y="132.25" width="73" height="104.75" as="geometry"/>
                </mxCell>
                <mxCell id="CzOwBbvjg2nErT3-Nfvz-1" value="" style="shape=cylinder3;whiteSpace=wrap;html=1;boundedLbl=1;backgroundOutline=1;size=15;fontSize=11;fillColor=#f5f5f5;fontColor=#333333;strokeColor=#666666;" parent="SinUWhQWTH323fvEsbH5-3" vertex="1">
                    <mxGeometry x="5.5" width="60" height="80" as="geometry"/>
                </mxCell>
                <mxCell id="Tw5lKN1PnHhC35xMCb-A-42" value="&lt;span style=&quot;font-size: 11px;&quot;&gt;ACCOUNTS&lt;br&gt;テーブル&lt;br&gt;&lt;/span&gt;" style="text;strokeColor=none;align=center;fillColor=none;html=1;verticalAlign=middle;whiteSpace=wrap;rounded=0;labelBackgroundColor=none;fontSize=10;" parent="SinUWhQWTH323fvEsbH5-3" vertex="1">
                    <mxGeometry y="84.75" width="73" height="20" as="geometry"/>
                </mxCell>
                <mxCell id="SinUWhQWTH323fvEsbH5-9" value="" style="group" parent="1" vertex="1" connectable="0">
                    <mxGeometry x="913.5" y="250" width="73" height="104" as="geometry"/>
                </mxCell>
                <mxCell id="Tw5lKN1PnHhC35xMCb-A-72" value="" style="shape=cylinder3;whiteSpace=wrap;html=1;boundedLbl=1;backgroundOutline=1;size=15;fontSize=11;fillColor=#f5f5f5;fontColor=#333333;strokeColor=#666666;" parent="SinUWhQWTH323fvEsbH5-9" vertex="1">
                    <mxGeometry x="6.5" width="60" height="80" as="geometry"/>
                </mxCell>
                <mxCell id="Tw5lKN1PnHhC35xMCb-A-73" value="&lt;span style=&quot;font-size: 11px;&quot;&gt;ROADMAP_IDS&lt;br&gt;テーブル&lt;br&gt;&lt;/span&gt;" style="text;strokeColor=none;align=center;fillColor=none;html=1;verticalAlign=middle;whiteSpace=wrap;rounded=0;labelBackgroundColor=none;fontSize=10;" parent="SinUWhQWTH323fvEsbH5-9" vertex="1">
                    <mxGeometry y="84" width="73" height="20" as="geometry"/>
                </mxCell>
                <mxCell id="SinUWhQWTH323fvEsbH5-10" value="" style="group" parent="1" vertex="1" connectable="0">
                    <mxGeometry x="-80" y="570" width="241" height="171" as="geometry"/>
                </mxCell>
                <mxCell id="Tw5lKN1PnHhC35xMCb-A-46" value="" style="group" parent="SinUWhQWTH323fvEsbH5-10" vertex="1" connectable="0">
                    <mxGeometry x="40" y="60" width="80" height="35" as="geometry"/>
                </mxCell>
                <mxCell id="Tw5lKN1PnHhC35xMCb-A-8" value="&lt;span style=&quot;font-size: 11px;&quot;&gt;JSP&lt;/span&gt;" style="text;strokeColor=none;align=left;fillColor=none;html=1;verticalAlign=middle;whiteSpace=wrap;rounded=0;labelBackgroundColor=none;fontSize=10;" parent="Tw5lKN1PnHhC35xMCb-A-46" vertex="1">
                    <mxGeometry x="25" width="30" height="20" as="geometry"/>
                </mxCell>
                <mxCell id="Tw5lKN1PnHhC35xMCb-A-45" value="&lt;font color=&quot;#ffffff&quot;&gt;index.jsp&lt;/font&gt;" style="rounded=0;whiteSpace=wrap;html=1;labelBackgroundColor=none;fillStyle=auto;strokeColor=#F0F0F0;fontFamily=Helvetica;fontSize=10;fontColor=#007FFF;fillColor=#4D9900;" parent="Tw5lKN1PnHhC35xMCb-A-46" vertex="1">
                    <mxGeometry y="20" width="80" height="15" as="geometry"/>
                </mxCell>
                <mxCell id="Tw5lKN1PnHhC35xMCb-A-50" value="" style="group" parent="SinUWhQWTH323fvEsbH5-10" vertex="1" connectable="0">
                    <mxGeometry x="140" y="120" width="80" height="39.5" as="geometry"/>
                </mxCell>
                <mxCell id="Tw5lKN1PnHhC35xMCb-A-48" value="&lt;font color=&quot;#ffffff&quot;&gt;mypage.jsp&lt;/font&gt;" style="rounded=0;whiteSpace=wrap;html=1;labelBackgroundColor=none;fillStyle=auto;strokeColor=#F0F0F0;fontFamily=Helvetica;fontSize=10;fontColor=#007FFF;fillColor=#4D9900;" parent="Tw5lKN1PnHhC35xMCb-A-50" vertex="1">
                    <mxGeometry y="24.5" width="80" height="15" as="geometry"/>
                </mxCell>
                <mxCell id="Tw5lKN1PnHhC35xMCb-A-49" value="&lt;span style=&quot;font-size: 11px;&quot;&gt;JSP&lt;/span&gt;" style="text;strokeColor=none;align=left;fillColor=none;html=1;verticalAlign=middle;whiteSpace=wrap;rounded=0;labelBackgroundColor=none;fontSize=10;" parent="Tw5lKN1PnHhC35xMCb-A-50" vertex="1">
                    <mxGeometry x="25" y="4.5" width="30" height="20" as="geometry"/>
                </mxCell>
                <mxCell id="SinUWhQWTH323fvEsbH5-16" value="" style="group" parent="1" vertex="1" connectable="0">
                    <mxGeometry x="914.5" y="510" width="73" height="107.75" as="geometry"/>
                </mxCell>
                <mxCell id="MwLqjNubVIBEys4BjLwC-9" value="" style="shape=cylinder3;whiteSpace=wrap;html=1;boundedLbl=1;backgroundOutline=1;size=15;fontSize=11;fillColor=#f5f5f5;fontColor=#333333;strokeColor=#666666;" parent="SinUWhQWTH323fvEsbH5-16" vertex="1">
                    <mxGeometry x="6.5" width="60" height="80" as="geometry"/>
                </mxCell>
                <mxCell id="MwLqjNubVIBEys4BjLwC-10" value="&lt;span style=&quot;font-size: 11px;&quot;&gt;CHILD_ELEMENTS&lt;br&gt;テーブル&lt;br&gt;&lt;/span&gt;" style="text;strokeColor=none;align=center;fillColor=none;html=1;verticalAlign=middle;whiteSpace=wrap;rounded=0;labelBackgroundColor=none;fontSize=10;" parent="SinUWhQWTH323fvEsbH5-16" vertex="1">
                    <mxGeometry y="87.75" width="73" height="20" as="geometry"/>
                </mxCell>
                <mxCell id="Tw5lKN1PnHhC35xMCb-A-16" value="&lt;span style=&quot;font-size: 11px;&quot;&gt;Login&lt;/span&gt;" style="text;strokeColor=none;align=left;fillColor=none;html=1;verticalAlign=middle;whiteSpace=wrap;rounded=0;labelBackgroundColor=none;fontSize=10;" parent="1" vertex="1">
                    <mxGeometry x="633.8221991701245" y="140" width="32.365145228215766" height="20" as="geometry"/>
                </mxCell>
                <mxCell id="Tw5lKN1PnHhC35xMCb-A-20" value="&lt;span style=&quot;font-size: 11px;&quot;&gt;該当：Account&lt;br&gt;非該当：null&lt;br&gt;&lt;/span&gt;" style="text;strokeColor=none;align=left;fillColor=none;html=1;verticalAlign=middle;whiteSpace=wrap;rounded=0;labelBackgroundColor=none;fontSize=10;" parent="1" vertex="1">
                    <mxGeometry x="609.34" y="190" width="81.33" height="20" as="geometry"/>
                </mxCell>
                <mxCell id="Tw5lKN1PnHhC35xMCb-A-70" value="&lt;span style=&quot;font-size: 11px;&quot;&gt;Login&lt;/span&gt;" style="text;strokeColor=none;align=left;fillColor=none;html=1;verticalAlign=middle;whiteSpace=wrap;rounded=0;labelBackgroundColor=none;fontSize=10;" parent="1" vertex="1">
                    <mxGeometry x="620" y="260.25" width="30" height="20" as="geometry"/>
                </mxCell>
                <mxCell id="MwLqjNubVIBEys4BjLwC-24" value="&lt;span style=&quot;font-size: 11px;&quot;&gt;RoadmapId&lt;br&gt;&lt;/span&gt;" style="text;strokeColor=none;align=left;fillColor=none;html=1;verticalAlign=middle;whiteSpace=wrap;rounded=0;labelBackgroundColor=none;fontSize=10;" parent="1" vertex="1">
                    <mxGeometry x="621.2800000000001" y="392.25" width="57.44" height="20" as="geometry"/>
                </mxCell>
                <mxCell id="MwLqjNubVIBEys4BjLwC-28" value="&lt;span style=&quot;font-size: 11px;&quot;&gt;ArrayList&lt;br&gt;&amp;lt;ParentElement&amp;gt;&lt;br&gt;&lt;/span&gt;" style="text;strokeColor=none;align=center;fillColor=none;html=1;verticalAlign=middle;whiteSpace=wrap;rounded=0;labelBackgroundColor=none;fontSize=10;" parent="1" vertex="1">
                    <mxGeometry x="606.8199999999999" y="435" width="86.36" height="20" as="geometry"/>
                </mxCell>
                <mxCell id="mUfy5AxHrcMVjJl0wBxt-5" value="ParentElement" style="text;strokeColor=none;align=left;fillColor=none;html=1;verticalAlign=middle;whiteSpace=wrap;rounded=0;labelBackgroundColor=none;fontSize=10;" parent="1" vertex="1">
                    <mxGeometry x="606.2800000000001" y="520" width="57.44" height="20" as="geometry"/>
                </mxCell>
                <mxCell id="mUfy5AxHrcMVjJl0wBxt-6" value="&lt;span style=&quot;font-size: 11px;&quot;&gt;ArrayList&lt;br&gt;&amp;lt;ChildElement&amp;gt;&lt;br&gt;&lt;/span&gt;" style="text;strokeColor=none;align=center;fillColor=none;html=1;verticalAlign=middle;whiteSpace=wrap;rounded=0;labelBackgroundColor=none;fontSize=10;" parent="1" vertex="1">
                    <mxGeometry x="591.8199999999999" y="565" width="86.36" height="20" as="geometry"/>
                </mxCell>
                <mxCell id="SinUWhQWTH323fvEsbH5-4" value="" style="group" parent="1" vertex="1" connectable="0">
                    <mxGeometry x="482.07468879668045" y="140" width="66.35" height="40" as="geometry"/>
                </mxCell>
                <mxCell id="Tw5lKN1PnHhC35xMCb-A-6" value="&lt;span style=&quot;font-size: 11px;&quot;&gt;BO&lt;/span&gt;" style="text;strokeColor=none;align=left;fillColor=none;html=1;verticalAlign=middle;whiteSpace=wrap;rounded=0;labelBackgroundColor=none;fontSize=10;" parent="SinUWhQWTH323fvEsbH5-4" vertex="1">
                    <mxGeometry x="22.09705394190872" width="23.734439834024894" height="20" as="geometry"/>
                </mxCell>
                <mxCell id="Tw5lKN1PnHhC35xMCb-A-10" value="&lt;font color=&quot;#ffffff&quot;&gt;LoginLogic&lt;br&gt;execute()&lt;br&gt;&lt;/font&gt;" style="rounded=0;whiteSpace=wrap;html=1;labelBackgroundColor=none;fillStyle=auto;strokeColor=#3700CC;fontFamily=Helvetica;fontSize=10;fontColor=#ffffff;fillColor=#6a00ff;container=0;" parent="SinUWhQWTH323fvEsbH5-4" vertex="1">
                    <mxGeometry y="20" width="66.35" height="25" as="geometry"/>
                </mxCell>
                <mxCell id="SinUWhQWTH323fvEsbH5-5" value="" style="group" parent="1" vertex="1" connectable="0">
                    <mxGeometry x="722.6141078838174" y="140" width="77.13692946058089" height="40" as="geometry"/>
                </mxCell>
                <mxCell id="Tw5lKN1PnHhC35xMCb-A-14" value="AccountsDAO&lt;br&gt;findByLogin()" style="rounded=0;whiteSpace=wrap;html=1;labelBackgroundColor=none;fillStyle=auto;strokeColor=#6F0000;fontFamily=Helvetica;fontSize=10;fontColor=#ffffff;fillColor=#a20025;container=0;" parent="SinUWhQWTH323fvEsbH5-5" vertex="1">
                    <mxGeometry y="20" width="77.1369294605809" height="25" as="geometry"/>
                </mxCell>
                <mxCell id="Tw5lKN1PnHhC35xMCb-A-7" value="&lt;span style=&quot;font-size: 11px;&quot;&gt;DAO&lt;/span&gt;" style="text;strokeColor=none;align=left;fillColor=none;html=1;verticalAlign=middle;whiteSpace=wrap;rounded=0;labelBackgroundColor=none;fontSize=10;" parent="SinUWhQWTH323fvEsbH5-5" vertex="1">
                    <mxGeometry x="22.38589211618259" width="32.365145228215766" height="20" as="geometry"/>
                </mxCell>
                <mxCell id="Tw5lKN1PnHhC35xMCb-A-18" value="" style="endArrow=classic;startArrow=classic;html=1;rounded=0;fontSize=10;jumpStyle=line;jumpSize=10;strokeWidth=3;exitX=1;exitY=0.5;exitDx=0;exitDy=0;entryX=0;entryY=0.5;entryDx=0;entryDy=0;entryPerimeter=0;" parent="1" source="Tw5lKN1PnHhC35xMCb-A-14" target="CzOwBbvjg2nErT3-Nfvz-1" edge="1">
                    <mxGeometry width="50" height="50" relative="1" as="geometry">
                        <mxPoint x="730" y="180.5" as="sourcePoint"/>
                        <mxPoint x="799" y="180.5" as="targetPoint"/>
                    </mxGeometry>
                </mxCell>
                <mxCell id="Tw5lKN1PnHhC35xMCb-A-15" style="edgeStyle=none;rounded=0;html=1;exitX=1;exitY=0.25;exitDx=0;exitDy=0;entryX=0;entryY=0.25;entryDx=0;entryDy=0;fontSize=11;fontColor=#000000;" parent="1" source="Tw5lKN1PnHhC35xMCb-A-10" target="Tw5lKN1PnHhC35xMCb-A-14" edge="1">
                    <mxGeometry relative="1" as="geometry"/>
                </mxCell>
                <mxCell id="Tw5lKN1PnHhC35xMCb-A-19" style="edgeStyle=none;rounded=0;html=1;exitX=0;exitY=0.75;exitDx=0;exitDy=0;entryX=1;entryY=0.75;entryDx=0;entryDy=0;fontSize=11;fontColor=#000000;" parent="1" source="Tw5lKN1PnHhC35xMCb-A-14" target="Tw5lKN1PnHhC35xMCb-A-10" edge="1">
                    <mxGeometry relative="1" as="geometry"/>
                </mxCell>
                <mxCell id="SinUWhQWTH323fvEsbH5-6" value="" style="group" parent="1" vertex="1" connectable="0">
                    <mxGeometry x="472.06999999999994" y="390.5" width="87.93" height="44.5" as="geometry"/>
                </mxCell>
                <mxCell id="Tw5lKN1PnHhC35xMCb-A-59" value="&lt;font color=&quot;#ffffff&quot;&gt;RoadmapGetLogic&lt;br&gt;execute()&lt;br&gt;&lt;/font&gt;" style="rounded=0;whiteSpace=wrap;html=1;labelBackgroundColor=none;fillStyle=auto;strokeColor=#3700CC;fontFamily=Helvetica;fontSize=10;fontColor=#ffffff;fillColor=#6a00ff;container=0;" parent="SinUWhQWTH323fvEsbH5-6" vertex="1">
                    <mxGeometry y="19.5" width="87.93" height="25" as="geometry"/>
                </mxCell>
                <mxCell id="Tw5lKN1PnHhC35xMCb-A-63" value="&lt;span style=&quot;font-size: 11px;&quot;&gt;BO&lt;/span&gt;" style="text;strokeColor=none;align=left;fillColor=none;html=1;verticalAlign=middle;whiteSpace=wrap;rounded=0;labelBackgroundColor=none;fontSize=10;" parent="SinUWhQWTH323fvEsbH5-6" vertex="1">
                    <mxGeometry x="31.31174273858919" width="23.734439834024894" height="20" as="geometry"/>
                </mxCell>
                <mxCell id="SinUWhQWTH323fvEsbH5-8" value="" style="group" parent="1" vertex="1" connectable="0">
                    <mxGeometry x="722.6141078838174" y="260" width="77.13692946058092" height="45" as="geometry"/>
                </mxCell>
                <mxCell id="Tw5lKN1PnHhC35xMCb-A-64" value="RoadmapIdsDAO&lt;br&gt;findByLogin()" style="rounded=0;whiteSpace=wrap;html=1;labelBackgroundColor=none;fillStyle=auto;strokeColor=#6F0000;fontFamily=Helvetica;fontSize=10;fontColor=#ffffff;fillColor=#a20025;container=0;" parent="SinUWhQWTH323fvEsbH5-8" vertex="1">
                    <mxGeometry y="20" width="77.1369294605809" height="25" as="geometry"/>
                </mxCell>
                <mxCell id="Tw5lKN1PnHhC35xMCb-A-65" value="&lt;span style=&quot;font-size: 11px;&quot;&gt;DAO&lt;/span&gt;" style="text;strokeColor=none;align=left;fillColor=none;html=1;verticalAlign=middle;whiteSpace=wrap;rounded=0;labelBackgroundColor=none;fontSize=10;" parent="SinUWhQWTH323fvEsbH5-8" vertex="1">
                    <mxGeometry x="22.385892116182617" width="32.365145228215766" height="20" as="geometry"/>
                </mxCell>
                <mxCell id="Tw5lKN1PnHhC35xMCb-A-74" value="" style="endArrow=classic;startArrow=classic;html=1;rounded=0;fontSize=10;jumpStyle=line;jumpSize=10;strokeWidth=3;exitX=1;exitY=0.5;exitDx=0;exitDy=0;entryX=0;entryY=0.5;entryDx=0;entryDy=0;entryPerimeter=0;" parent="1" source="Tw5lKN1PnHhC35xMCb-A-64" target="Tw5lKN1PnHhC35xMCb-A-72" edge="1">
                    <mxGeometry width="50" height="50" relative="1" as="geometry">
                        <mxPoint x="689.7510373443981" y="311.75" as="sourcePoint"/>
                        <mxPoint x="799" y="312.25" as="targetPoint"/>
                    </mxGeometry>
                </mxCell>
                <mxCell id="Tw5lKN1PnHhC35xMCb-A-66" style="edgeStyle=none;rounded=0;html=1;exitX=0.75;exitY=0;exitDx=0;exitDy=0;entryX=0;entryY=0.25;entryDx=0;entryDy=0;fontSize=11;fontColor=#000000;" parent="1" source="Tw5lKN1PnHhC35xMCb-A-59" target="Tw5lKN1PnHhC35xMCb-A-64" edge="1">
                    <mxGeometry relative="1" as="geometry">
                        <Array as="points">
                            <mxPoint x="538" y="286"/>
                        </Array>
                    </mxGeometry>
                </mxCell>
                <mxCell id="Tw5lKN1PnHhC35xMCb-A-67" style="edgeStyle=none;rounded=0;html=1;exitX=0;exitY=0.75;exitDx=0;exitDy=0;entryX=0.877;entryY=-0.087;entryDx=0;entryDy=0;fontSize=11;fontColor=#000000;entryPerimeter=0;" parent="1" source="Tw5lKN1PnHhC35xMCb-A-64" target="Tw5lKN1PnHhC35xMCb-A-59" edge="1">
                    <mxGeometry relative="1" as="geometry">
                        <Array as="points">
                            <mxPoint x="550" y="300"/>
                        </Array>
                    </mxGeometry>
                </mxCell>
                <mxCell id="MwLqjNubVIBEys4BjLwC-29" value="&lt;span style=&quot;font-size: 11px;&quot;&gt;ArrayList&amp;lt;RoadmapId&amp;gt;&lt;br&gt;&lt;/span&gt;" style="text;strokeColor=none;align=left;fillColor=none;html=1;verticalAlign=middle;whiteSpace=wrap;rounded=0;labelBackgroundColor=none;fontSize=10;" parent="1" vertex="1">
                    <mxGeometry x="583.78" y="305" width="102.44" height="20" as="geometry"/>
                </mxCell>
                <mxCell id="SinUWhQWTH323fvEsbH5-13" value="" style="group" parent="1" vertex="1" connectable="0">
                    <mxGeometry x="716.3" y="390.5" width="97.38999999999999" height="45" as="geometry"/>
                </mxCell>
                <mxCell id="MwLqjNubVIBEys4BjLwC-12" value="&lt;span style=&quot;font-size: 11px;&quot;&gt;DAO&lt;/span&gt;" style="text;strokeColor=none;align=left;fillColor=none;html=1;verticalAlign=middle;whiteSpace=wrap;rounded=0;labelBackgroundColor=none;fontSize=10;" parent="SinUWhQWTH323fvEsbH5-13" vertex="1">
                    <mxGeometry x="32.50999999999999" width="32.365145228215766" height="20" as="geometry"/>
                </mxCell>
                <mxCell id="MwLqjNubVIBEys4BjLwC-13" value="ParentElementsDAO&lt;br&gt;findByRoadmap()" style="rounded=0;whiteSpace=wrap;html=1;labelBackgroundColor=none;fillStyle=auto;strokeColor=#6F0000;fontFamily=Helvetica;fontSize=10;fontColor=#ffffff;fillColor=#a20025;container=0;" parent="SinUWhQWTH323fvEsbH5-13" vertex="1">
                    <mxGeometry y="20" width="97.39" height="25" as="geometry"/>
                </mxCell>
                <mxCell id="MwLqjNubVIBEys4BjLwC-20" value="" style="endArrow=classic;startArrow=classic;html=1;rounded=0;fontSize=10;jumpStyle=line;jumpSize=10;strokeWidth=3;exitX=1;exitY=0.5;exitDx=0;exitDy=0;entryX=0;entryY=0.5;entryDx=0;entryDy=0;entryPerimeter=0;" parent="1" source="MwLqjNubVIBEys4BjLwC-13" target="MwLqjNubVIBEys4BjLwC-7" edge="1">
                    <mxGeometry width="50" height="50" relative="1" as="geometry">
                        <mxPoint x="699.7510373443981" y="461.75" as="sourcePoint"/>
                        <mxPoint x="850" y="460" as="targetPoint"/>
                    </mxGeometry>
                </mxCell>
                <mxCell id="MwLqjNubVIBEys4BjLwC-22" style="edgeStyle=none;rounded=0;html=1;exitX=1;exitY=0.25;exitDx=0;exitDy=0;entryX=0;entryY=0.25;entryDx=0;entryDy=0;fontSize=11;fontColor=#000000;" parent="1" source="Tw5lKN1PnHhC35xMCb-A-59" target="MwLqjNubVIBEys4BjLwC-13" edge="1">
                    <mxGeometry relative="1" as="geometry"/>
                </mxCell>
                <mxCell id="MwLqjNubVIBEys4BjLwC-23" style="edgeStyle=none;rounded=0;html=1;exitX=0;exitY=0.75;exitDx=0;exitDy=0;entryX=1;entryY=0.75;entryDx=0;entryDy=0;fontSize=11;fontColor=#000000;" parent="1" source="MwLqjNubVIBEys4BjLwC-13" target="Tw5lKN1PnHhC35xMCb-A-59" edge="1">
                    <mxGeometry relative="1" as="geometry"/>
                </mxCell>
                <mxCell id="MwLqjNubVIBEys4BjLwC-4" value="" style="group" parent="1" vertex="1" connectable="0">
                    <mxGeometry x="760" y="210" width="77.37" height="70.25" as="geometry"/>
                </mxCell>
                <mxCell id="MwLqjNubVIBEys4BjLwC-5" value="&lt;font color=&quot;#000000&quot;&gt;&lt;br&gt;&lt;/font&gt;" style="shape=callout;whiteSpace=wrap;html=1;perimeter=calloutPerimeter;fontSize=11;fillColor=#dae8fc;strokeColor=#6c8ebf;base=13;position2=0.47;size=30;position=0.47;align=left;" parent="MwLqjNubVIBEys4BjLwC-4" vertex="1">
                    <mxGeometry y="1.7134146341463414" width="73.50150000000001" height="68.53658536585365" as="geometry"/>
                </mxCell>
                <mxCell id="MwLqjNubVIBEys4BjLwC-6" value="Loginに格納&lt;br&gt;されたuserIdで検索" style="text;strokeColor=none;align=left;fillColor=none;html=1;verticalAlign=middle;whiteSpace=wrap;rounded=0;labelBackgroundColor=none;fontSize=10;fontColor=#000000;" parent="MwLqjNubVIBEys4BjLwC-4" vertex="1">
                    <mxGeometry x="3.4386666666666668" y="-3.7525386097234468" width="68.77333333333334" height="45.6910569105691" as="geometry"/>
                </mxCell>
                <mxCell id="MwLqjNubVIBEys4BjLwC-17" value="" style="group" parent="1" vertex="1" connectable="0">
                    <mxGeometry x="747.37" y="335" width="102.63" height="77.25" as="geometry"/>
                </mxCell>
                <mxCell id="MwLqjNubVIBEys4BjLwC-18" value="&lt;font color=&quot;#000000&quot;&gt;&lt;br&gt;&lt;/font&gt;" style="shape=callout;whiteSpace=wrap;html=1;perimeter=calloutPerimeter;fontSize=11;fillColor=#dae8fc;strokeColor=#6c8ebf;base=13;position2=0.47;size=30;position=0.47;align=left;" parent="MwLqjNubVIBEys4BjLwC-17" vertex="1">
                    <mxGeometry y="1.8841463414634148" width="97.49849999999999" height="75.36585365853658" as="geometry"/>
                </mxCell>
                <mxCell id="MwLqjNubVIBEys4BjLwC-19" value="RoadmapIdに&lt;br&gt;格納されたuserIdとroadmapIdで検索" style="text;strokeColor=none;align=left;fillColor=none;html=1;verticalAlign=middle;whiteSpace=wrap;rounded=0;labelBackgroundColor=none;fontSize=10;fontColor=#000000;" parent="MwLqjNubVIBEys4BjLwC-17" vertex="1">
                    <mxGeometry x="4.561333333333333" y="0.8373983739837398" width="91.22666666666666" height="50.24390243902439" as="geometry"/>
                </mxCell>
                <mxCell id="SinUWhQWTH323fvEsbH5-15" value="" style="group" parent="1" vertex="1" connectable="0">
                    <mxGeometry x="712.49" y="520" width="97.38999999999999" height="45" as="geometry"/>
                </mxCell>
                <mxCell id="mUfy5AxHrcMVjJl0wBxt-1" value="&lt;span style=&quot;font-size: 11px;&quot;&gt;DAO&lt;/span&gt;" style="text;strokeColor=none;align=left;fillColor=none;html=1;verticalAlign=middle;whiteSpace=wrap;rounded=0;labelBackgroundColor=none;fontSize=10;" parent="SinUWhQWTH323fvEsbH5-15" vertex="1">
                    <mxGeometry x="32.50999999999999" width="32.365145228215766" height="20" as="geometry"/>
                </mxCell>
                <mxCell id="mUfy5AxHrcMVjJl0wBxt-2" value="ChildElementsDAO&lt;br&gt;findByRoadmap()" style="rounded=0;whiteSpace=wrap;html=1;labelBackgroundColor=none;fillStyle=auto;strokeColor=#6F0000;fontFamily=Helvetica;fontSize=10;fontColor=#ffffff;fillColor=#a20025;container=0;" parent="SinUWhQWTH323fvEsbH5-15" vertex="1">
                    <mxGeometry y="20" width="97.39" height="25" as="geometry"/>
                </mxCell>
                <mxCell id="mUfy5AxHrcMVjJl0wBxt-8" value="" style="group" parent="1" vertex="1" connectable="0">
                    <mxGeometry x="743.6800000000001" y="450" width="110" height="90" as="geometry"/>
                </mxCell>
                <mxCell id="mUfy5AxHrcMVjJl0wBxt-9" value="&lt;font color=&quot;#000000&quot;&gt;&lt;br&gt;&lt;/font&gt;" style="shape=callout;whiteSpace=wrap;html=1;perimeter=calloutPerimeter;fontSize=11;fillColor=#dae8fc;strokeColor=#6c8ebf;base=13;position2=0.47;size=30;position=0.47;align=left;" parent="mUfy5AxHrcMVjJl0wBxt-8" vertex="1">
                    <mxGeometry y="2.1951219512195124" width="104.50000000000001" height="87.80487804878047" as="geometry"/>
                </mxCell>
                <mxCell id="mUfy5AxHrcMVjJl0wBxt-10" value="ParentElementに&lt;br&gt;格納されたuserId、roadmapId、parentNumで検索" style="text;strokeColor=none;align=left;fillColor=none;html=1;verticalAlign=middle;whiteSpace=wrap;rounded=0;labelBackgroundColor=none;fontSize=10;fontColor=#000000;" parent="mUfy5AxHrcMVjJl0wBxt-8" vertex="1">
                    <mxGeometry x="4.888888888888889" y="0.9756097560975607" width="97.77777777777779" height="58.53658536585365" as="geometry"/>
                </mxCell>
                <mxCell id="SinUWhQWTH323fvEsbH5-20" style="edgeStyle=none;html=1;exitX=0;exitY=0.75;exitDx=0;exitDy=0;fontSize=10;entryX=0.75;entryY=1;entryDx=0;entryDy=0;strokeColor=default;rounded=0;" parent="1" source="mUfy5AxHrcMVjJl0wBxt-2" target="Tw5lKN1PnHhC35xMCb-A-59" edge="1">
                    <mxGeometry relative="1" as="geometry">
                        <Array as="points">
                            <mxPoint x="540" y="559"/>
                        </Array>
                    </mxGeometry>
                </mxCell>
                <mxCell id="SinUWhQWTH323fvEsbH5-21" style="edgeStyle=none;rounded=0;html=1;entryX=0;entryY=0.25;entryDx=0;entryDy=0;strokeColor=default;fontSize=10;exitX=0.877;exitY=1.017;exitDx=0;exitDy=0;exitPerimeter=0;" parent="1" source="Tw5lKN1PnHhC35xMCb-A-59" target="mUfy5AxHrcMVjJl0wBxt-2" edge="1">
                    <mxGeometry relative="1" as="geometry">
                        <mxPoint x="550" y="460" as="sourcePoint"/>
                        <Array as="points">
                            <mxPoint x="550" y="546"/>
                        </Array>
                    </mxGeometry>
                </mxCell>
                <mxCell id="SinUWhQWTH323fvEsbH5-22" value="" style="group" parent="1" vertex="1" connectable="0">
                    <mxGeometry x="230" y="450" width="200" height="100" as="geometry"/>
                </mxCell>
                <mxCell id="y_gbYHGOkGPl-Gcg3ohX-2" value="&lt;font color=&quot;#000000&quot;&gt;&lt;br&gt;&lt;/font&gt;" style="shape=callout;whiteSpace=wrap;html=1;perimeter=calloutPerimeter;fontSize=11;fillColor=#dae8fc;strokeColor=#6c8ebf;base=13;position2=0.4;size=30;position=0.47;align=left;rotation=-180;" parent="SinUWhQWTH323fvEsbH5-22" vertex="1">
                    <mxGeometry y="3.780237508141708e-14" width="199.99646699999997" height="86.45343399590102" as="geometry"/>
                </mxCell>
                <mxCell id="y_gbYHGOkGPl-Gcg3ohX-3" value="&lt;font style=&quot;font-size: 10px;&quot;&gt;[フィールド]&lt;br style=&quot;&quot;&gt;RoadmapId&lt;br&gt;ArrayList&amp;lt;ParentElement&amp;gt; parentElements&lt;br&gt;ArrayList&amp;lt;ChildElement&amp;gt; childElements&lt;/font&gt;" style="text;strokeColor=none;align=left;fillColor=none;html=1;verticalAlign=middle;whiteSpace=wrap;rounded=0;labelBackgroundColor=none;fontSize=10;fontColor=#000000;" parent="SinUWhQWTH323fvEsbH5-22" vertex="1">
                    <mxGeometry y="12.86" width="200" height="87.14" as="geometry"/>
                </mxCell>
                <mxCell id="SinUWhQWTH323fvEsbH5-24" value="&lt;span style=&quot;font-size: 11px;&quot;&gt;取得&lt;br&gt;&lt;/span&gt;" style="text;strokeColor=none;align=left;fillColor=none;html=1;verticalAlign=middle;whiteSpace=wrap;rounded=0;labelBackgroundColor=none;fontSize=10;" parent="1" vertex="1">
                    <mxGeometry x="201.75" y="680" width="30" height="30" as="geometry"/>
                </mxCell>
                <mxCell id="SinUWhQWTH323fvEsbH5-27" value="&lt;span style=&quot;font-size: 11px;&quot;&gt;保存&lt;br&gt;&lt;/span&gt;" style="text;strokeColor=none;align=left;fillColor=none;html=1;verticalAlign=middle;whiteSpace=wrap;rounded=0;labelBackgroundColor=none;fontSize=10;" parent="1" vertex="1">
                    <mxGeometry x="-156" y="267.5" width="30" height="30" as="geometry"/>
                </mxCell>
                <mxCell id="mUfy5AxHrcMVjJl0wBxt-7" value="" style="endArrow=classic;startArrow=classic;html=1;rounded=0;fontSize=10;jumpStyle=line;jumpSize=10;strokeWidth=3;exitX=1;exitY=0.5;exitDx=0;exitDy=0;entryX=0;entryY=0.5;entryDx=0;entryDy=0;entryPerimeter=0;" parent="1" source="mUfy5AxHrcMVjJl0wBxt-2" target="MwLqjNubVIBEys4BjLwC-9" edge="1">
                    <mxGeometry width="50" height="50" relative="1" as="geometry">
                        <mxPoint x="700.0010373443984" y="511.75" as="sourcePoint"/>
                        <mxPoint x="880" y="580" as="targetPoint"/>
                    </mxGeometry>
                </mxCell>
                <mxCell id="SinUWhQWTH323fvEsbH5-28" value="" style="endArrow=async;html=1;rounded=0;shadow=1;labelBackgroundColor=default;strokeColor=#82b366;fontFamily=Helvetica;fontSize=10;fontColor=#FFFFFF;shape=connector;strokeWidth=1;startArrow=none;startFill=0;fillColor=#d5e8d4;jumpStyle=line;jumpSize=10;entryX=0.25;entryY=0;entryDx=0;entryDy=0;dashed=1;endFill=1;exitX=0.75;exitY=1;exitDx=0;exitDy=0;" parent="1" source="XFtxbLRGI5h6IF-Y_2xD-2" target="Tw5lKN1PnHhC35xMCb-A-45" edge="1">
                    <mxGeometry width="50" height="50" relative="1" as="geometry">
                        <mxPoint x="-20" y="530" as="sourcePoint"/>
                        <mxPoint x="42" y="530.8750000000003" as="targetPoint"/>
                        <Array as="points">
                            <mxPoint x="-124" y="540"/>
                            <mxPoint x="-20" y="540"/>
                        </Array>
                    </mxGeometry>
                </mxCell>
                <mxCell id="SinUWhQWTH323fvEsbH5-29" value="&lt;span style=&quot;font-size: 11px;&quot;&gt;取得&lt;br&gt;&lt;/span&gt;" style="text;strokeColor=none;align=left;fillColor=none;html=1;verticalAlign=middle;whiteSpace=wrap;rounded=0;labelBackgroundColor=none;fontSize=10;" parent="1" vertex="1">
                    <mxGeometry x="-160.75" y="527.5" width="30" height="30" as="geometry"/>
                </mxCell>
                <mxCell id="Tw5lKN1PnHhC35xMCb-A-38" value="" style="group" parent="1" vertex="1" connectable="0">
                    <mxGeometry x="753.69" y="80" width="90" height="78.25" as="geometry"/>
                </mxCell>
                <mxCell id="Tw5lKN1PnHhC35xMCb-A-36" value="&lt;font color=&quot;#000000&quot;&gt;&lt;br&gt;&lt;/font&gt;" style="shape=callout;whiteSpace=wrap;html=1;perimeter=calloutPerimeter;fontSize=11;fillColor=#dae8fc;strokeColor=#6c8ebf;base=13;position2=0.47;size=30;position=0.47;align=left;" parent="Tw5lKN1PnHhC35xMCb-A-38" vertex="1">
                    <mxGeometry y="1.9085365853658531" width="85.5" height="76.34146341463413" as="geometry"/>
                </mxCell>
                <mxCell id="Tw5lKN1PnHhC35xMCb-A-37" value="&lt;font style=&quot;font-size: 10px;&quot;&gt;Loginに格納&lt;br&gt;されたuserIdとpassで検索&lt;/font&gt;" style="text;strokeColor=none;align=left;fillColor=none;html=1;verticalAlign=middle;whiteSpace=wrap;rounded=0;labelBackgroundColor=none;fontSize=10;fontColor=#000000;" parent="Tw5lKN1PnHhC35xMCb-A-38" vertex="1">
                    <mxGeometry x="4" y="0.8482384823848237" width="80" height="50.89430894308942" as="geometry"/>
                </mxCell>
                <mxCell id="oUVSl5xInov-beCNjxEz-208" value="POST" style="text;strokeColor=default;align=center;fillColor=none;html=1;verticalAlign=middle;whiteSpace=wrap;rounded=0;labelBackgroundColor=none;fontSize=10;" parent="1" vertex="1">
                    <mxGeometry x="-140" y="856.4999999999999" width="30" height="15" as="geometry"/>
                </mxCell>
                <mxCell id="oUVSl5xInov-beCNjxEz-209" value="email=入力値" style="text;strokeColor=#990000;align=center;fillColor=none;html=1;verticalAlign=middle;whiteSpace=wrap;rounded=0;labelBackgroundColor=none;fontSize=10;dashed=1;strokeWidth=2;perimeterSpacing=0;dashPattern=1 1;glass=1;" parent="1" vertex="1">
                    <mxGeometry x="-160.75" y="884" width="71.5" height="25.5" as="geometry"/>
                </mxCell>
                <mxCell id="oUVSl5xInov-beCNjxEz-210" style="edgeStyle=none;html=1;entryX=0;entryY=0.5;entryDx=0;entryDy=0;fontSize=10;fillColor=none;" parent="1" target="oUVSl5xInov-beCNjxEz-197" edge="1">
                    <mxGeometry relative="1" as="geometry">
                        <mxPoint x="-200" y="877" as="sourcePoint"/>
                        <mxPoint x="-106" y="884" as="targetPoint"/>
                    </mxGeometry>
                </mxCell>
                <mxCell id="oUVSl5xInov-beCNjxEz-211" style="edgeStyle=none;rounded=0;html=1;fontSize=11;entryX=0;entryY=0.25;entryDx=0;entryDy=0;exitX=1;exitY=0.25;exitDx=0;exitDy=0;" parent="1" source="oUVSl5xInov-beCNjxEz-197" target="oUVSl5xInov-beCNjxEz-265" edge="1">
                    <mxGeometry relative="1" as="geometry">
                        <mxPoint x="360" y="884" as="targetPoint"/>
                        <mxPoint x="230" y="870" as="sourcePoint"/>
                    </mxGeometry>
                </mxCell>
                <mxCell id="oUVSl5xInov-beCNjxEz-212" value="&lt;span style=&quot;font-size: 11px;&quot;&gt;String email&lt;/span&gt;" style="text;strokeColor=none;align=left;fillColor=none;html=1;verticalAlign=middle;whiteSpace=wrap;rounded=0;labelBackgroundColor=none;fontSize=10;" parent="1" vertex="1">
                    <mxGeometry x="275.5" y="851.5" width="69" height="20" as="geometry"/>
                </mxCell>
                <mxCell id="oUVSl5xInov-beCNjxEz-213" style="edgeStyle=none;rounded=0;html=1;exitX=0;exitY=0.75;exitDx=0;exitDy=0;fontSize=11;fontColor=#000000;entryX=1;entryY=0.75;entryDx=0;entryDy=0;" parent="1" source="oUVSl5xInov-beCNjxEz-265" target="oUVSl5xInov-beCNjxEz-197" edge="1">
                    <mxGeometry relative="1" as="geometry"/>
                </mxCell>
                <mxCell id="oUVSl5xInov-beCNjxEz-214" value="&lt;span style=&quot;font-size: 11px;&quot;&gt;該当：Account&lt;br&gt;非該当、verified=0：null&lt;br&gt;&lt;/span&gt;" style="text;strokeColor=none;align=left;fillColor=none;html=1;verticalAlign=middle;whiteSpace=wrap;rounded=0;labelBackgroundColor=none;fontSize=10;" parent="1" vertex="1">
                    <mxGeometry x="243.75" y="894" width="132.5" height="20" as="geometry"/>
                </mxCell>
                <mxCell id="oUVSl5xInov-beCNjxEz-222" style="edgeStyle=none;rounded=0;html=1;exitX=0;exitY=0.5;exitDx=0;exitDy=0;fontSize=11;fontColor=#000000;" parent="1" source="oUVSl5xInov-beCNjxEz-250" edge="1">
                    <mxGeometry relative="1" as="geometry">
                        <mxPoint x="-200" y="1426" as="targetPoint"/>
                    </mxGeometry>
                </mxCell>
                <mxCell id="oUVSl5xInov-beCNjxEz-223" style="edgeStyle=none;rounded=0;html=1;exitX=0;exitY=0.5;exitDx=0;exitDy=0;fontSize=11;fontColor=#000000;" parent="1" source="oUVSl5xInov-beCNjxEz-248" edge="1">
                    <mxGeometry relative="1" as="geometry">
                        <mxPoint x="-200" y="1362" as="targetPoint"/>
                    </mxGeometry>
                </mxCell>
                <mxCell id="oUVSl5xInov-beCNjxEz-234" style="edgeStyle=none;rounded=0;html=1;entryX=0.75;entryY=0;entryDx=0;entryDy=0;fontSize=11;fontColor=#000000;fillColor=none;" parent="1" target="oUVSl5xInov-beCNjxEz-248" edge="1">
                    <mxGeometry relative="1" as="geometry">
                        <mxPoint x="20" y="890" as="sourcePoint"/>
                    </mxGeometry>
                </mxCell>
                <mxCell id="oUVSl5xInov-beCNjxEz-235" value="&lt;font color=&quot;#ffffff&quot;&gt;R：&lt;br&gt;&quot;errorMsg&quot;&amp;nbsp;&lt;/font&gt;&lt;span style=&quot;color: rgb(255, 255, 255);&quot;&gt;エラーメッセージ&lt;/span&gt;" style="rounded=0;whiteSpace=wrap;html=1;labelBackgroundColor=none;fillStyle=auto;strokeColor=#F0F0F0;fontFamily=Helvetica;fontSize=10;fontColor=#007FFF;fillColor=#999900;align=left;" parent="1" vertex="1">
                    <mxGeometry x="-227.25" y="1164" width="138" height="21.5" as="geometry"/>
                </mxCell>
                <mxCell id="oUVSl5xInov-beCNjxEz-236" value="" style="endArrow=async;html=1;rounded=0;shadow=1;labelBackgroundColor=default;strokeColor=#82b366;fontFamily=Helvetica;fontSize=10;fontColor=#FFFFFF;shape=connector;strokeWidth=1;startArrow=none;startFill=0;fillColor=#d5e8d4;jumpStyle=line;jumpSize=10;entryX=0.75;entryY=0;entryDx=0;entryDy=0;dashed=1;endFill=1;" parent="1" target="oUVSl5xInov-beCNjxEz-235" edge="1">
                    <mxGeometry width="50" height="50" relative="1" as="geometry">
                        <mxPoint x="16" y="890" as="sourcePoint"/>
                        <mxPoint x="-138" y="1040.8750000000005" as="targetPoint"/>
                        <Array as="points">
                            <mxPoint x="16" y="984"/>
                            <mxPoint x="-124" y="984"/>
                        </Array>
                    </mxGeometry>
                </mxCell>
                <mxCell id="oUVSl5xInov-beCNjxEz-257" value="&lt;span style=&quot;font-size: 11px;&quot;&gt;該当：Account&lt;br&gt;非該当：null&lt;br&gt;&lt;/span&gt;" style="text;strokeColor=none;align=left;fillColor=none;html=1;verticalAlign=middle;whiteSpace=wrap;rounded=0;labelBackgroundColor=none;fontSize=10;" parent="1" vertex="1">
                    <mxGeometry x="609.34" y="894" width="81.33" height="20" as="geometry"/>
                </mxCell>
                <mxCell id="oUVSl5xInov-beCNjxEz-263" value="" style="group" parent="1" vertex="1" connectable="0">
                    <mxGeometry x="482.07468879668045" y="844" width="80" height="45" as="geometry"/>
                </mxCell>
                <mxCell id="oUVSl5xInov-beCNjxEz-264" value="&lt;span style=&quot;font-size: 11px;&quot;&gt;BO&lt;/span&gt;" style="text;strokeColor=none;align=left;fillColor=none;html=1;verticalAlign=middle;whiteSpace=wrap;rounded=0;labelBackgroundColor=none;fontSize=10;" parent="oUVSl5xInov-beCNjxEz-263" vertex="1">
                    <mxGeometry x="18.137053941908718" width="23.734439834024894" height="20" as="geometry"/>
                </mxCell>
                <mxCell id="oUVSl5xInov-beCNjxEz-265" value="Email&lt;font color=&quot;#ffffff&quot;&gt;Logic&lt;br&gt;findAccount()&lt;br&gt;&lt;/font&gt;" style="rounded=0;whiteSpace=wrap;html=1;labelBackgroundColor=none;fillStyle=auto;strokeColor=#3700CC;fontFamily=Helvetica;fontSize=10;fontColor=#ffffff;fillColor=#6a00ff;container=0;" parent="oUVSl5xInov-beCNjxEz-263" vertex="1">
                    <mxGeometry x="-10" y="20" width="80" height="25" as="geometry"/>
                </mxCell>
                <mxCell id="oUVSl5xInov-beCNjxEz-266" value="" style="group" parent="1" vertex="1" connectable="0">
                    <mxGeometry x="722.6141078838174" y="844" width="77.13692946058089" height="40" as="geometry"/>
                </mxCell>
                <mxCell id="oUVSl5xInov-beCNjxEz-267" value="AccountsDAO&lt;br&gt;findByEmail()" style="rounded=0;whiteSpace=wrap;html=1;labelBackgroundColor=none;fillStyle=auto;strokeColor=#6F0000;fontFamily=Helvetica;fontSize=10;fontColor=#ffffff;fillColor=#a20025;container=0;" parent="oUVSl5xInov-beCNjxEz-266" vertex="1">
                    <mxGeometry y="20" width="77.1369294605809" height="25" as="geometry"/>
                </mxCell>
                <mxCell id="oUVSl5xInov-beCNjxEz-268" value="&lt;span style=&quot;font-size: 11px;&quot;&gt;DAO&lt;/span&gt;" style="text;strokeColor=none;align=left;fillColor=none;html=1;verticalAlign=middle;whiteSpace=wrap;rounded=0;labelBackgroundColor=none;fontSize=10;" parent="oUVSl5xInov-beCNjxEz-266" vertex="1">
                    <mxGeometry x="22.38589211618259" width="32.365145228215766" height="20" as="geometry"/>
                </mxCell>
                <mxCell id="oUVSl5xInov-beCNjxEz-269" value="" style="endArrow=classic;startArrow=classic;html=1;rounded=0;fontSize=10;jumpStyle=line;jumpSize=10;strokeWidth=3;exitX=1;exitY=0.5;exitDx=0;exitDy=0;entryX=0;entryY=0.5;entryDx=0;entryDy=0;entryPerimeter=0;" parent="1" source="oUVSl5xInov-beCNjxEz-267" target="oUVSl5xInov-beCNjxEz-238" edge="1">
                    <mxGeometry width="50" height="50" relative="1" as="geometry">
                        <mxPoint x="730" y="884.5" as="sourcePoint"/>
                        <mxPoint x="799" y="884.5" as="targetPoint"/>
                    </mxGeometry>
                </mxCell>
                <mxCell id="oUVSl5xInov-beCNjxEz-270" style="edgeStyle=none;rounded=0;html=1;exitX=1;exitY=0.25;exitDx=0;exitDy=0;entryX=0;entryY=0.25;entryDx=0;entryDy=0;fontSize=11;fontColor=#000000;" parent="1" source="oUVSl5xInov-beCNjxEz-265" target="oUVSl5xInov-beCNjxEz-267" edge="1">
                    <mxGeometry relative="1" as="geometry"/>
                </mxCell>
                <mxCell id="oUVSl5xInov-beCNjxEz-271" style="edgeStyle=none;rounded=0;html=1;exitX=0;exitY=0.75;exitDx=0;exitDy=0;entryX=1;entryY=0.75;entryDx=0;entryDy=0;fontSize=11;fontColor=#000000;" parent="1" source="oUVSl5xInov-beCNjxEz-267" target="oUVSl5xInov-beCNjxEz-265" edge="1">
                    <mxGeometry relative="1" as="geometry"/>
                </mxCell>
                <mxCell id="oUVSl5xInov-beCNjxEz-306" value="&lt;span style=&quot;font-size: 11px;&quot;&gt;保存&lt;br&gt;&lt;/span&gt;" style="text;strokeColor=none;align=left;fillColor=none;html=1;verticalAlign=middle;whiteSpace=wrap;rounded=0;labelBackgroundColor=none;fontSize=10;" parent="1" vertex="1">
                    <mxGeometry x="-156" y="971.5" width="30" height="30" as="geometry"/>
                </mxCell>
                <mxCell id="oUVSl5xInov-beCNjxEz-308" value="" style="endArrow=async;html=1;rounded=0;shadow=1;labelBackgroundColor=default;strokeColor=#82b366;fontFamily=Helvetica;fontSize=10;fontColor=#FFFFFF;shape=connector;strokeWidth=1;startArrow=none;startFill=0;fillColor=#d5e8d4;jumpStyle=line;jumpSize=10;entryX=0.25;entryY=0;entryDx=0;entryDy=0;dashed=1;endFill=1;exitX=0.75;exitY=1;exitDx=0;exitDy=0;" parent="1" source="oUVSl5xInov-beCNjxEz-235" target="oUVSl5xInov-beCNjxEz-248" edge="1">
                    <mxGeometry width="50" height="50" relative="1" as="geometry">
                        <mxPoint x="-20" y="1234" as="sourcePoint"/>
                        <mxPoint x="42" y="1234.8750000000005" as="targetPoint"/>
                        <Array as="points">
                            <mxPoint x="-124" y="1244"/>
                            <mxPoint x="-20" y="1244"/>
                        </Array>
                    </mxGeometry>
                </mxCell>
                <mxCell id="oUVSl5xInov-beCNjxEz-309" value="&lt;span style=&quot;font-size: 11px;&quot;&gt;取得&lt;br&gt;&lt;/span&gt;" style="text;strokeColor=none;align=left;fillColor=none;html=1;verticalAlign=middle;whiteSpace=wrap;rounded=0;labelBackgroundColor=none;fontSize=10;" parent="1" vertex="1">
                    <mxGeometry x="-160.75" y="1231.5" width="30" height="30" as="geometry"/>
                </mxCell>
                <mxCell id="ftqoutyjFijoicH6mBVl-3" value="&lt;span style=&quot;font-size: 11px;&quot;&gt;String email&lt;/span&gt;" style="text;strokeColor=none;align=left;fillColor=none;html=1;verticalAlign=middle;whiteSpace=wrap;rounded=0;labelBackgroundColor=none;fontSize=10;" parent="1" vertex="1">
                    <mxGeometry x="615.51" y="851.5" width="69" height="20" as="geometry"/>
                </mxCell>
                <mxCell id="CBrPYdOECoBDX8SypaeP-5" value="&lt;span style=&quot;font-size: 11px;&quot;&gt;Account&lt;/span&gt;" style="text;strokeColor=none;align=left;fillColor=none;html=1;verticalAlign=middle;whiteSpace=wrap;rounded=0;labelBackgroundColor=none;fontSize=10;" parent="1" vertex="1">
                    <mxGeometry x="607.01" y="1091.5" width="48.5" height="20" as="geometry"/>
                </mxCell>
                <mxCell id="CBrPYdOECoBDX8SypaeP-7" value="&lt;span style=&quot;font-size: 11px;&quot;&gt;処理件数&lt;/span&gt;" style="text;strokeColor=none;align=left;fillColor=none;html=1;verticalAlign=middle;whiteSpace=wrap;rounded=0;labelBackgroundColor=none;fontSize=10;" parent="1" vertex="1">
                    <mxGeometry x="607.01" y="1134.75" width="48.5" height="20" as="geometry"/>
                </mxCell>
                <mxCell id="oUVSl5xInov-beCNjxEz-237" value="" style="group" parent="1" vertex="1" connectable="0">
                    <mxGeometry x="914.5" y="836" width="73" height="104.75" as="geometry"/>
                </mxCell>
                <mxCell id="oUVSl5xInov-beCNjxEz-238" value="" style="shape=cylinder3;whiteSpace=wrap;html=1;boundedLbl=1;backgroundOutline=1;size=15;fontSize=11;fillColor=#f5f5f5;fontColor=#333333;strokeColor=#666666;" parent="oUVSl5xInov-beCNjxEz-237" vertex="1">
                    <mxGeometry x="5.5" width="60" height="80" as="geometry"/>
                </mxCell>
                <mxCell id="oUVSl5xInov-beCNjxEz-239" value="&lt;span style=&quot;font-size: 11px;&quot;&gt;ACCOUNTS&lt;br&gt;テーブル&lt;br&gt;&lt;/span&gt;" style="text;strokeColor=none;align=center;fillColor=none;html=1;verticalAlign=middle;whiteSpace=wrap;rounded=0;labelBackgroundColor=none;fontSize=10;" parent="oUVSl5xInov-beCNjxEz-237" vertex="1">
                    <mxGeometry y="84.75" width="73" height="20" as="geometry"/>
                </mxCell>
                <mxCell id="CBrPYdOECoBDX8SypaeP-10" value="" style="endArrow=classic;startArrow=classic;html=1;rounded=0;fontSize=10;jumpStyle=line;jumpSize=10;strokeWidth=3;exitX=1;exitY=0.5;exitDx=0;exitDy=0;entryX=0;entryY=0.5;entryDx=0;entryDy=0;entryPerimeter=0;" parent="1" source="CBrPYdOECoBDX8SypaeP-2" target="qUWfzGeAzLbKSwg53p9H-6" edge="1">
                    <mxGeometry width="50" height="50" relative="1" as="geometry">
                        <mxPoint x="832.611037344398" y="1046.2499999999998" as="sourcePoint"/>
                        <mxPoint x="952.8600000000001" y="1081.2499999999998" as="targetPoint"/>
                    </mxGeometry>
                </mxCell>
                <mxCell id="CBrPYdOECoBDX8SypaeP-3" value="&lt;span style=&quot;font-size: 11px;&quot;&gt;DAO&lt;/span&gt;" style="text;strokeColor=none;align=left;fillColor=none;html=1;verticalAlign=middle;whiteSpace=wrap;rounded=0;labelBackgroundColor=none;fontSize=10;" parent="1" vertex="1">
                    <mxGeometry x="745" y="1090" width="32.365145228215766" height="20" as="geometry"/>
                </mxCell>
                <mxCell id="CBrPYdOECoBDX8SypaeP-1" value="" style="group" parent="1" vertex="1" connectable="0">
                    <mxGeometry x="706.1841078838174" y="1090" width="110" height="45" as="geometry"/>
                </mxCell>
                <mxCell id="CBrPYdOECoBDX8SypaeP-2" value="AccountsDAO&lt;br&gt;updateUuidByUserId()" style="rounded=0;whiteSpace=wrap;html=1;labelBackgroundColor=none;fillStyle=auto;strokeColor=#6F0000;fontFamily=Helvetica;fontSize=10;fontColor=#ffffff;fillColor=#a20025;container=0;" parent="CBrPYdOECoBDX8SypaeP-1" vertex="1">
                    <mxGeometry y="20" width="110" height="25" as="geometry"/>
                </mxCell>
                <mxCell id="CBrPYdOECoBDX8SypaeP-11" value="" style="group" parent="1" vertex="1" connectable="0">
                    <mxGeometry x="734" y="1030" width="109.69" height="80" as="geometry"/>
                </mxCell>
                <mxCell id="CBrPYdOECoBDX8SypaeP-12" value="&lt;font color=&quot;#000000&quot;&gt;&lt;br&gt;&lt;/font&gt;" style="shape=callout;whiteSpace=wrap;html=1;perimeter=calloutPerimeter;fontSize=11;fillColor=#dae8fc;strokeColor=#6c8ebf;base=13;position2=0.47;size=30;position=0.47;align=left;" parent="CBrPYdOECoBDX8SypaeP-11" vertex="1">
                    <mxGeometry y="10" width="104.21" height="70" as="geometry"/>
                </mxCell>
                <mxCell id="CBrPYdOECoBDX8SypaeP-13" value="&lt;font style=&quot;font-size: 10px;&quot;&gt;Accountに格納&lt;br&gt;されたuserIdで検索&lt;br&gt;UUIDを更新&lt;br&gt;&lt;/font&gt;" style="text;strokeColor=none;align=left;fillColor=none;html=1;verticalAlign=middle;whiteSpace=wrap;rounded=0;labelBackgroundColor=none;fontSize=10;fontColor=#000000;" parent="CBrPYdOECoBDX8SypaeP-11" vertex="1">
                    <mxGeometry x="4.875111111111111" y="3.4173055859802846" width="97.50222222222222" height="52.89712460063899" as="geometry"/>
                </mxCell>
                <mxCell id="wh2zpdDx1nXNKpHRa-gx-210" style="edgeStyle=none;rounded=0;html=1;exitX=0;exitY=0.75;exitDx=0;exitDy=0;entryX=0.5;entryY=1;entryDx=0;entryDy=0;" parent="1" source="wh2zpdDx1nXNKpHRa-gx-15" target="wh2zpdDx1nXNKpHRa-gx-109" edge="1">
                    <mxGeometry relative="1" as="geometry">
                        <Array as="points">
                            <mxPoint x="494" y="1293"/>
                        </Array>
                    </mxGeometry>
                </mxCell>
                <mxCell id="wh2zpdDx1nXNKpHRa-gx-219" style="edgeStyle=none;rounded=0;html=1;exitX=1;exitY=0.5;exitDx=0;exitDy=0;entryX=0;entryY=0;entryDx=0;entryDy=30;entryPerimeter=0;" parent="1" source="wh2zpdDx1nXNKpHRa-gx-15" target="wh2zpdDx1nXNKpHRa-gx-214" edge="1">
                    <mxGeometry relative="1" as="geometry">
                        <mxPoint x="910" y="1293" as="targetPoint"/>
                    </mxGeometry>
                </mxCell>
                <mxCell id="wh2zpdDx1nXNKpHRa-gx-15" value="&lt;font color=&quot;#ffffff&quot;&gt;EmailSender&lt;br&gt;execute()&lt;br&gt;&lt;/font&gt;" style="rounded=0;whiteSpace=wrap;html=1;labelBackgroundColor=none;fillStyle=auto;strokeColor=#C73500;fontFamily=Helvetica;fontSize=10;fontColor=#000000;fillColor=#fa6800;container=0;" parent="1" vertex="1">
                    <mxGeometry x="678.65" y="1274" width="66.35" height="25" as="geometry"/>
                </mxCell>
                <mxCell id="oUVSl5xInov-beCNjxEz-218" value="" style="group" parent="1" vertex="1" connectable="0">
                    <mxGeometry x="753.69" y="800" width="90" height="62.25" as="geometry"/>
                </mxCell>
                <mxCell id="oUVSl5xInov-beCNjxEz-219" value="&lt;font color=&quot;#000000&quot;&gt;&lt;br&gt;&lt;/font&gt;" style="shape=callout;whiteSpace=wrap;html=1;perimeter=calloutPerimeter;fontSize=11;fillColor=#dae8fc;strokeColor=#6c8ebf;base=13;position2=0.47;size=30;position=0.47;align=left;" parent="oUVSl5xInov-beCNjxEz-218" vertex="1">
                    <mxGeometry y="1.5182926829268288" width="85.5" height="60.73170731707316" as="geometry"/>
                </mxCell>
                <mxCell id="oUVSl5xInov-beCNjxEz-220" value="&lt;font style=&quot;font-size: 10px;&quot;&gt;入力値のemailで&lt;br&gt;検索&lt;/font&gt;" style="text;strokeColor=none;align=left;fillColor=none;html=1;verticalAlign=middle;whiteSpace=wrap;rounded=0;labelBackgroundColor=none;fontSize=10;fontColor=#000000;" parent="oUVSl5xInov-beCNjxEz-218" vertex="1">
                    <mxGeometry x="4" y="-3" width="80" height="41.16057507987221" as="geometry"/>
                </mxCell>
                <mxCell id="qUWfzGeAzLbKSwg53p9H-13" style="edgeStyle=none;rounded=0;html=1;exitX=1;exitY=0.25;exitDx=0;exitDy=0;entryX=0;entryY=0.25;entryDx=0;entryDy=0;" parent="1" source="wh2zpdDx1nXNKpHRa-gx-21" target="qUWfzGeAzLbKSwg53p9H-11" edge="1">
                    <mxGeometry relative="1" as="geometry"/>
                </mxCell>
                <mxCell id="wh2zpdDx1nXNKpHRa-gx-21" value="&lt;font color=&quot;#ffffff&quot;&gt;TokenLogic&lt;br&gt;generateToken()&lt;br&gt;&lt;/font&gt;" style="rounded=0;whiteSpace=wrap;html=1;labelBackgroundColor=none;fillStyle=auto;strokeColor=#3700CC;fontFamily=Helvetica;fontSize=10;fontColor=#ffffff;fillColor=#6a00ff;container=0;" parent="1" vertex="1">
                    <mxGeometry x="471.0000000000001" y="998.5" width="77.65" height="25" as="geometry"/>
                </mxCell>
                <mxCell id="wh2zpdDx1nXNKpHRa-gx-29" value="&lt;span style=&quot;font-size: 11px;&quot;&gt;Token&lt;/span&gt;" style="text;strokeColor=none;align=left;fillColor=none;html=1;verticalAlign=middle;whiteSpace=wrap;rounded=0;labelBackgroundColor=none;fontSize=10;" parent="1" vertex="1">
                    <mxGeometry x="237.25" y="1021.5" width="32.5" height="20" as="geometry"/>
                </mxCell>
                <mxCell id="wh2zpdDx1nXNKpHRa-gx-108" value="&lt;span style=&quot;font-size: 11px;&quot;&gt;null&lt;/span&gt;" style="text;strokeColor=none;align=left;fillColor=none;html=1;verticalAlign=middle;whiteSpace=wrap;rounded=0;labelBackgroundColor=none;fontSize=10;" parent="1" vertex="1">
                    <mxGeometry x="242.25" y="981.5" width="22.5" height="20" as="geometry"/>
                </mxCell>
                <mxCell id="wh2zpdDx1nXNKpHRa-gx-112" style="edgeStyle=none;html=1;exitX=1;exitY=0.25;exitDx=0;exitDy=0;entryX=0;entryY=0.25;entryDx=0;entryDy=0;" parent="1" source="wh2zpdDx1nXNKpHRa-gx-109" target="CBrPYdOECoBDX8SypaeP-2" edge="1">
                    <mxGeometry relative="1" as="geometry"/>
                </mxCell>
                <mxCell id="wh2zpdDx1nXNKpHRa-gx-209" style="edgeStyle=none;rounded=0;html=1;exitX=0.75;exitY=1;exitDx=0;exitDy=0;entryX=0;entryY=0.25;entryDx=0;entryDy=0;" parent="1" source="wh2zpdDx1nXNKpHRa-gx-109" target="wh2zpdDx1nXNKpHRa-gx-15" edge="1">
                    <mxGeometry relative="1" as="geometry">
                        <Array as="points">
                            <mxPoint x="524" y="1280"/>
                        </Array>
                    </mxGeometry>
                </mxCell>
                <mxCell id="wh2zpdDx1nXNKpHRa-gx-109" value="Email&lt;font color=&quot;#ffffff&quot;&gt;Logic&lt;br&gt;sendAuthenticateEmail()&lt;br&gt;&lt;/font&gt;" style="rounded=0;whiteSpace=wrap;html=1;labelBackgroundColor=none;fillStyle=auto;strokeColor=#3700CC;fontFamily=Helvetica;fontSize=10;fontColor=#ffffff;fillColor=#6a00ff;container=0;" parent="1" vertex="1">
                    <mxGeometry x="434" y="1111.5" width="120.65" height="25" as="geometry"/>
                </mxCell>
                <mxCell id="wh2zpdDx1nXNKpHRa-gx-111" style="edgeStyle=none;html=1;exitX=0.75;exitY=1;exitDx=0;exitDy=0;entryX=0.25;entryY=0;entryDx=0;entryDy=0;" parent="1" source="oUVSl5xInov-beCNjxEz-197" target="oUVSl5xInov-beCNjxEz-250" edge="1">
                    <mxGeometry relative="1" as="geometry"/>
                </mxCell>
                <mxCell id="wh2zpdDx1nXNKpHRa-gx-113" style="edgeStyle=none;html=1;exitX=0;exitY=0.75;exitDx=0;exitDy=0;entryX=1;entryY=0.75;entryDx=0;entryDy=0;" parent="1" source="CBrPYdOECoBDX8SypaeP-2" target="wh2zpdDx1nXNKpHRa-gx-109" edge="1">
                    <mxGeometry relative="1" as="geometry"/>
                </mxCell>
                <mxCell id="wh2zpdDx1nXNKpHRa-gx-116" value="&lt;span style=&quot;font-size: 11px;&quot;&gt;Account、Token&lt;/span&gt;" style="text;strokeColor=none;align=left;fillColor=none;html=1;verticalAlign=middle;whiteSpace=wrap;rounded=0;labelBackgroundColor=none;fontSize=10;" parent="1" vertex="1">
                    <mxGeometry x="275.5" y="1091.5" width="88.25" height="20" as="geometry"/>
                </mxCell>
                <mxCell id="wh2zpdDx1nXNKpHRa-gx-199" value="&lt;span style=&quot;font-size: 11px;&quot;&gt;該当処理完了：true&lt;br&gt;該当処理未完了：false&lt;br&gt;&lt;/span&gt;" style="text;strokeColor=none;align=left;fillColor=none;html=1;verticalAlign=middle;whiteSpace=wrap;rounded=0;labelBackgroundColor=none;fontSize=10;" parent="1" vertex="1">
                    <mxGeometry x="269.88" y="1135" width="114.12" height="25" as="geometry"/>
                </mxCell>
                <mxCell id="wh2zpdDx1nXNKpHRa-gx-201" value="&lt;span style=&quot;font-size: 11px;&quot;&gt;BO&lt;/span&gt;" style="text;strokeColor=none;align=left;fillColor=none;html=1;verticalAlign=middle;whiteSpace=wrap;rounded=0;labelBackgroundColor=none;fontSize=10;" parent="1" vertex="1">
                    <mxGeometry x="482.46174273858924" y="1091.5" width="23.734439834024894" height="20" as="geometry"/>
                </mxCell>
                <mxCell id="wh2zpdDx1nXNKpHRa-gx-204" value="&lt;span style=&quot;font-size: 11px;&quot;&gt;Account&lt;/span&gt;" style="text;strokeColor=none;align=left;fillColor=none;html=1;verticalAlign=middle;whiteSpace=wrap;rounded=0;labelBackgroundColor=none;fontSize=10;" parent="1" vertex="1">
                    <mxGeometry x="558.37" y="1254" width="49.35" height="20" as="geometry"/>
                </mxCell>
                <mxCell id="wh2zpdDx1nXNKpHRa-gx-205" value="&lt;span style=&quot;font-size: 11px;&quot;&gt;送信完了：true&lt;br&gt;送信未完了：false&lt;br&gt;&lt;/span&gt;" style="text;strokeColor=none;align=left;fillColor=none;html=1;verticalAlign=middle;whiteSpace=wrap;rounded=0;labelBackgroundColor=none;fontSize=10;" parent="1" vertex="1">
                    <mxGeometry x="532.09" y="1299" width="101.91" height="25" as="geometry"/>
                </mxCell>
                <mxCell id="wh2zpdDx1nXNKpHRa-gx-23" value="" style="group" parent="1" vertex="1" connectable="0">
                    <mxGeometry x="474" y="926.5" width="139" height="72" as="geometry"/>
                </mxCell>
                <mxCell id="wh2zpdDx1nXNKpHRa-gx-24" value="&lt;font color=&quot;#000000&quot;&gt;&lt;br&gt;&lt;/font&gt;" style="shape=callout;whiteSpace=wrap;html=1;perimeter=calloutPerimeter;fontSize=11;fillColor=#dae8fc;strokeColor=#6c8ebf;base=13;position2=0.47;size=30;position=0.47;align=left;" parent="wh2zpdDx1nXNKpHRa-gx-23" vertex="1">
                    <mxGeometry y="1.7560975609756095" width="133" height="70.24390243902438" as="geometry"/>
                </mxCell>
                <mxCell id="wh2zpdDx1nXNKpHRa-gx-25" value="ハッシュ化したトークンとUUIDを生成、Tokenインスタンスに格納" style="text;strokeColor=none;align=left;fillColor=none;html=1;verticalAlign=middle;whiteSpace=wrap;rounded=0;labelBackgroundColor=none;fontSize=10;fontColor=#000000;" parent="wh2zpdDx1nXNKpHRa-gx-23" vertex="1">
                    <mxGeometry x="6.222222222222221" y="-0.23392446189251392" width="124.44444444444444" height="47.607412140575086" as="geometry"/>
                </mxCell>
                <mxCell id="wh2zpdDx1nXNKpHRa-gx-207" value="&lt;span style=&quot;font-size: 11px;&quot;&gt;BO&lt;/span&gt;" style="text;strokeColor=none;align=left;fillColor=none;html=1;verticalAlign=middle;whiteSpace=wrap;rounded=0;labelBackgroundColor=none;fontSize=10;" parent="1" vertex="1">
                    <mxGeometry x="497.96174273858924" y="981.5" width="23.734439834024894" height="20" as="geometry"/>
                </mxCell>
                <mxCell id="wh2zpdDx1nXNKpHRa-gx-211" value="" style="group" parent="1" vertex="1" connectable="0">
                    <mxGeometry x="633.69" y="1299" width="176.31" height="121" as="geometry"/>
                </mxCell>
                <mxCell id="wh2zpdDx1nXNKpHRa-gx-212" value="&lt;font color=&quot;#000000&quot;&gt;&lt;br&gt;&lt;/font&gt;" style="shape=callout;whiteSpace=wrap;html=1;perimeter=calloutPerimeter;fontSize=11;fillColor=#dae8fc;strokeColor=#6c8ebf;base=13;position2=0.47;size=30;position=0.47;align=left;rotation=-180;" parent="wh2zpdDx1nXNKpHRa-gx-211" vertex="1">
                    <mxGeometry y="2.951219512195122" width="167.489550870189" height="110.83468834688347" as="geometry"/>
                </mxCell>
                <mxCell id="wh2zpdDx1nXNKpHRa-gx-213" value="&lt;span style=&quot;font-size: 11px;&quot;&gt;Accountに格納されたemailにメールを送信&lt;br&gt;URLパラメータにAccountに格納されたuuidを含める&lt;br&gt;verified=true(認証済)の場合はパスワード再設定仕様の内容&lt;br&gt;&lt;/span&gt;" style="text;strokeColor=none;align=left;fillColor=none;html=1;verticalAlign=middle;whiteSpace=wrap;rounded=0;labelBackgroundColor=none;fontSize=10;fontColor=#000000;" parent="wh2zpdDx1nXNKpHRa-gx-211" vertex="1">
                    <mxGeometry x="6.736193375335287" y="41.90785907859079" width="156.71999999999997" height="64.2710027100271" as="geometry"/>
                </mxCell>
                <mxCell id="wh2zpdDx1nXNKpHRa-gx-216" value="" style="group" parent="1" vertex="1" connectable="0">
                    <mxGeometry x="908.1599999999999" y="1257" width="73" height="106" as="geometry"/>
                </mxCell>
                <mxCell id="wh2zpdDx1nXNKpHRa-gx-214" value="" style="shape=cube;whiteSpace=wrap;html=1;boundedLbl=1;backgroundOutline=1;darkOpacity=0.05;darkOpacity2=0.1;fillColor=#f5f5f5;fontColor=#333333;strokeColor=#666666;" parent="wh2zpdDx1nXNKpHRa-gx-216" vertex="1">
                    <mxGeometry x="6.3400000000001455" width="60.31" height="80" as="geometry"/>
                </mxCell>
                <mxCell id="wh2zpdDx1nXNKpHRa-gx-215" value="SMTPサーバ" style="text;strokeColor=none;align=center;fillColor=none;html=1;verticalAlign=middle;whiteSpace=wrap;rounded=0;labelBackgroundColor=none;fontSize=10;" parent="wh2zpdDx1nXNKpHRa-gx-216" vertex="1">
                    <mxGeometry y="86" width="73" height="20" as="geometry"/>
                </mxCell>
                <mxCell id="wh2zpdDx1nXNKpHRa-gx-222" value="&lt;span style=&quot;font-size: 11px;&quot;&gt;メール送信&lt;/span&gt;" style="text;strokeColor=none;align=left;fillColor=none;html=1;verticalAlign=middle;whiteSpace=wrap;rounded=0;labelBackgroundColor=none;fontSize=10;" parent="1" vertex="1">
                    <mxGeometry x="780" y="1261.5" width="63.69" height="20" as="geometry"/>
                </mxCell>
                <mxCell id="qUWfzGeAzLbKSwg53p9H-5" value="" style="group" parent="1" vertex="1" connectable="0">
                    <mxGeometry x="914.5" y="1081.63" width="73" height="104.75" as="geometry"/>
                </mxCell>
                <mxCell id="qUWfzGeAzLbKSwg53p9H-6" value="" style="shape=cylinder3;whiteSpace=wrap;html=1;boundedLbl=1;backgroundOutline=1;size=15;fontSize=11;fillColor=#f5f5f5;fontColor=#333333;strokeColor=#666666;" parent="qUWfzGeAzLbKSwg53p9H-5" vertex="1">
                    <mxGeometry x="5.5" width="60" height="80" as="geometry"/>
                </mxCell>
                <mxCell id="qUWfzGeAzLbKSwg53p9H-7" value="&lt;span style=&quot;font-size: 11px;&quot;&gt;ACCOUNTS&lt;br&gt;テーブル&lt;br&gt;&lt;/span&gt;" style="text;strokeColor=none;align=center;fillColor=none;html=1;verticalAlign=middle;whiteSpace=wrap;rounded=0;labelBackgroundColor=none;fontSize=10;" parent="qUWfzGeAzLbKSwg53p9H-5" vertex="1">
                    <mxGeometry y="84.75" width="73" height="20" as="geometry"/>
                </mxCell>
                <mxCell id="qUWfzGeAzLbKSwg53p9H-8" value="" style="group" parent="1" vertex="1" connectable="0">
                    <mxGeometry x="914.5" y="970.1300000000001" width="73" height="104.75" as="geometry"/>
                </mxCell>
                <mxCell id="qUWfzGeAzLbKSwg53p9H-9" value="" style="shape=cylinder3;whiteSpace=wrap;html=1;boundedLbl=1;backgroundOutline=1;size=15;fontSize=11;fillColor=#f5f5f5;fontColor=#333333;strokeColor=#666666;" parent="qUWfzGeAzLbKSwg53p9H-8" vertex="1">
                    <mxGeometry x="5.5" width="60" height="80" as="geometry"/>
                </mxCell>
                <mxCell id="qUWfzGeAzLbKSwg53p9H-10" value="&lt;span style=&quot;font-size: 11px;&quot;&gt;TOKENS&lt;br&gt;テーブル&lt;br&gt;&lt;/span&gt;" style="text;strokeColor=none;align=center;fillColor=none;html=1;verticalAlign=middle;whiteSpace=wrap;rounded=0;labelBackgroundColor=none;fontSize=10;" parent="qUWfzGeAzLbKSwg53p9H-8" vertex="1">
                    <mxGeometry y="84.75" width="73" height="20" as="geometry"/>
                </mxCell>
                <mxCell id="qUWfzGeAzLbKSwg53p9H-14" style="edgeStyle=none;rounded=0;html=1;exitX=0;exitY=0.75;exitDx=0;exitDy=0;entryX=1;entryY=0.75;entryDx=0;entryDy=0;" parent="1" source="qUWfzGeAzLbKSwg53p9H-11" target="wh2zpdDx1nXNKpHRa-gx-21" edge="1">
                    <mxGeometry relative="1" as="geometry"/>
                </mxCell>
                <mxCell id="qUWfzGeAzLbKSwg53p9H-16" value="" style="endArrow=classic;startArrow=classic;html=1;rounded=0;fontSize=10;jumpStyle=line;jumpSize=10;strokeWidth=3;exitX=1;exitY=0.5;exitDx=0;exitDy=0;entryX=0;entryY=0.5;entryDx=0;entryDy=0;entryPerimeter=0;" parent="1" source="qUWfzGeAzLbKSwg53p9H-11" target="qUWfzGeAzLbKSwg53p9H-9" edge="1">
                    <mxGeometry width="50" height="50" relative="1" as="geometry">
                        <mxPoint x="809.7510373443984" y="886.5000000000002" as="sourcePoint"/>
                        <mxPoint x="930.0000000000002" y="885.9999999999998" as="targetPoint"/>
                    </mxGeometry>
                </mxCell>
                <mxCell id="qUWfzGeAzLbKSwg53p9H-11" value="TokensDAO&lt;br&gt;insertToken()" style="rounded=0;whiteSpace=wrap;html=1;labelBackgroundColor=none;fillStyle=auto;strokeColor=#6F0000;fontFamily=Helvetica;fontSize=10;fontColor=#ffffff;fillColor=#a20025;container=0;" parent="1" vertex="1">
                    <mxGeometry x="720.0041078838174" y="998.5" width="77.1369294605809" height="25" as="geometry"/>
                </mxCell>
                <mxCell id="qUWfzGeAzLbKSwg53p9H-12" value="&lt;span style=&quot;font-size: 11px;&quot;&gt;DAO&lt;/span&gt;" style="text;strokeColor=none;align=left;fillColor=none;html=1;verticalAlign=middle;whiteSpace=wrap;rounded=0;labelBackgroundColor=none;fontSize=10;" parent="1" vertex="1">
                    <mxGeometry x="742.39" y="978.5" width="32.365145228215766" height="20" as="geometry"/>
                </mxCell>
                <mxCell id="qUWfzGeAzLbKSwg53p9H-17" value="&lt;span style=&quot;font-size: 11px;&quot;&gt;Token&lt;/span&gt;" style="text;strokeColor=none;align=left;fillColor=none;html=1;verticalAlign=middle;whiteSpace=wrap;rounded=0;labelBackgroundColor=none;fontSize=10;" parent="1" vertex="1">
                    <mxGeometry x="640" y="981.5" width="32.5" height="20" as="geometry"/>
                </mxCell>
                <mxCell id="qUWfzGeAzLbKSwg53p9H-129" value="&lt;span style=&quot;font-size: 11px;&quot;&gt;処理件数&lt;/span&gt;" style="text;strokeColor=none;align=left;fillColor=none;html=1;verticalAlign=middle;whiteSpace=wrap;rounded=0;labelBackgroundColor=none;fontSize=10;" parent="1" vertex="1">
                    <mxGeometry x="632" y="1023.5" width="48.5" height="20" as="geometry"/>
                </mxCell>
                <mxCell id="qUWfzGeAzLbKSwg53p9H-130" value="" style="group" parent="1" vertex="1" connectable="0">
                    <mxGeometry x="730" y="936.25" width="105" height="62.25" as="geometry"/>
                </mxCell>
                <mxCell id="qUWfzGeAzLbKSwg53p9H-131" value="&lt;font color=&quot;#000000&quot;&gt;&lt;br&gt;&lt;/font&gt;" style="shape=callout;whiteSpace=wrap;html=1;perimeter=calloutPerimeter;fontSize=11;fillColor=#dae8fc;strokeColor=#6c8ebf;base=13;position2=0.47;size=30;position=0.47;align=left;" parent="qUWfzGeAzLbKSwg53p9H-130" vertex="1">
                    <mxGeometry y="1.5182926829268288" width="99.75" height="60.73170731707316" as="geometry"/>
                </mxCell>
                <mxCell id="qUWfzGeAzLbKSwg53p9H-132" value="引数のTokenを&lt;br&gt;データベースに追加" style="text;strokeColor=none;align=left;fillColor=none;html=1;verticalAlign=middle;whiteSpace=wrap;rounded=0;labelBackgroundColor=none;fontSize=10;fontColor=#000000;" parent="qUWfzGeAzLbKSwg53p9H-130" vertex="1">
                    <mxGeometry y="-3" width="98" height="41.16" as="geometry"/>
                </mxCell>
                <mxCell id="oUVSl5xInov-beCNjxEz-193" value="&lt;span style=&quot;font-size: 11px;&quot;&gt;BOからの&lt;br&gt;戻り値：Account&lt;br&gt;&lt;/span&gt;" style="text;strokeColor=none;align=left;fillColor=none;html=1;verticalAlign=middle;whiteSpace=wrap;rounded=0;labelBackgroundColor=none;fontSize=10;" parent="1" vertex="1">
                    <mxGeometry x="70" y="906.5" width="90" height="30" as="geometry"/>
                </mxCell>
                <mxCell id="oUVSl5xInov-beCNjxEz-195" value="フォワード" style="text;strokeColor=default;align=center;fillColor=none;html=1;verticalAlign=middle;whiteSpace=wrap;rounded=0;labelBackgroundColor=none;fontSize=10;" parent="1" vertex="1">
                    <mxGeometry x="-50" y="945" width="60" height="15" as="geometry"/>
                </mxCell>
                <mxCell id="oUVSl5xInov-beCNjxEz-196" value="" style="group" parent="1" vertex="1" connectable="0">
                    <mxGeometry y="844" width="90" height="45" as="geometry"/>
                </mxCell>
                <mxCell id="oUVSl5xInov-beCNjxEz-197" value="&lt;span style=&quot;color: rgb(255, 255, 255);&quot;&gt;ForgetPassServlet&lt;/span&gt;&lt;font color=&quot;#ffffff&quot;&gt;&lt;br&gt;doPost()&lt;br&gt;&lt;/font&gt;" style="rounded=0;whiteSpace=wrap;html=1;labelBackgroundColor=none;fillStyle=auto;strokeColor=#F0F0F0;fontFamily=Helvetica;fontSize=10;fontColor=#007FFF;fillColor=#0066CC;" parent="oUVSl5xInov-beCNjxEz-196" vertex="1">
                    <mxGeometry y="20" width="90" height="25" as="geometry"/>
                </mxCell>
                <mxCell id="oUVSl5xInov-beCNjxEz-198" value="&lt;span style=&quot;font-size: 11px;&quot;&gt;Servlet&lt;/span&gt;" style="text;strokeColor=none;align=left;fillColor=none;html=1;verticalAlign=middle;whiteSpace=wrap;rounded=0;labelBackgroundColor=none;fontSize=10;" parent="oUVSl5xInov-beCNjxEz-196" vertex="1">
                    <mxGeometry x="17" width="46" height="20" as="geometry"/>
                </mxCell>
                <mxCell id="oUVSl5xInov-beCNjxEz-205" value="&lt;span style=&quot;font-size: 11px;&quot;&gt;BOからの&lt;br&gt;戻り値：null&lt;br&gt;&lt;/span&gt;" style="text;strokeColor=none;align=left;fillColor=none;html=1;verticalAlign=middle;whiteSpace=wrap;rounded=0;labelBackgroundColor=none;fontSize=10;" parent="1" vertex="1">
                    <mxGeometry x="-60" y="906.5" width="70" height="30" as="geometry"/>
                </mxCell>
                <mxCell id="wh2zpdDx1nXNKpHRa-gx-110" value="" style="group" parent="1" vertex="1" connectable="0">
                    <mxGeometry x="70" y="1034" width="150" height="50" as="geometry"/>
                </mxCell>
                <mxCell id="CBrPYdOECoBDX8SypaeP-15" value="&lt;font color=&quot;#000000&quot;&gt;&lt;br&gt;&lt;/font&gt;" style="shape=callout;whiteSpace=wrap;html=1;perimeter=calloutPerimeter;fontSize=11;fillColor=#dae8fc;strokeColor=#6c8ebf;base=13;position2=0.47;size=30;position=0.47;align=left;rotation=90;" parent="wh2zpdDx1nXNKpHRa-gx-110" vertex="1">
                    <mxGeometry x="47.183017087075655" y="-44.597691393651324" width="52.89849722332526" height="139.1953827873026" as="geometry"/>
                </mxCell>
                <mxCell id="CBrPYdOECoBDX8SypaeP-16" value="&lt;font style=&quot;font-size: 10px;&quot;&gt;Accountに、戻り値の&lt;br&gt;TokenのUUIDをセット&lt;/font&gt;" style="text;strokeColor=none;align=left;fillColor=none;html=1;verticalAlign=middle;whiteSpace=wrap;rounded=0;labelBackgroundColor=none;fontSize=10;fontColor=#000000;" parent="wh2zpdDx1nXNKpHRa-gx-110" vertex="1">
                    <mxGeometry x="40" y="0.03" width="110" height="49.95" as="geometry"/>
                </mxCell>
                <mxCell id="oUVSl5xInov-beCNjxEz-194" value="フォワード" style="text;strokeColor=default;align=center;fillColor=none;html=1;verticalAlign=middle;whiteSpace=wrap;rounded=0;labelBackgroundColor=none;fontSize=10;" parent="1" vertex="1">
                    <mxGeometry x="77.99000000000001" y="1170" width="59" height="15" as="geometry"/>
                </mxCell>
                <mxCell id="oUVSl5xInov-beCNjxEz-246" value="" style="group" parent="1" vertex="1" connectable="0">
                    <mxGeometry x="-40" y="1334" width="80" height="35" as="geometry"/>
                </mxCell>
                <mxCell id="oUVSl5xInov-beCNjxEz-247" value="&lt;span style=&quot;font-size: 11px;&quot;&gt;JSP&lt;/span&gt;" style="text;strokeColor=none;align=left;fillColor=none;html=1;verticalAlign=middle;whiteSpace=wrap;rounded=0;labelBackgroundColor=none;fontSize=10;" parent="oUVSl5xInov-beCNjxEz-246" vertex="1">
                    <mxGeometry x="25" width="30" height="20" as="geometry"/>
                </mxCell>
                <mxCell id="oUVSl5xInov-beCNjxEz-248" value="&lt;span style=&quot;color: rgb(255, 255, 255);&quot;&gt;forgetPass.jsp&lt;/span&gt;" style="rounded=0;whiteSpace=wrap;html=1;labelBackgroundColor=none;fillStyle=auto;strokeColor=#F0F0F0;fontFamily=Helvetica;fontSize=10;fontColor=#007FFF;fillColor=#4D9900;" parent="oUVSl5xInov-beCNjxEz-246" vertex="1">
                    <mxGeometry y="20" width="80" height="15" as="geometry"/>
                </mxCell>
                <mxCell id="oUVSl5xInov-beCNjxEz-249" value="" style="group" parent="1" vertex="1" connectable="0">
                    <mxGeometry x="50" y="1394" width="80" height="39.5" as="geometry"/>
                </mxCell>
                <mxCell id="oUVSl5xInov-beCNjxEz-250" value="&lt;span style=&quot;color: rgb(255, 255, 255);&quot;&gt;forgetPassOK.jsp&lt;/span&gt;" style="rounded=0;whiteSpace=wrap;html=1;labelBackgroundColor=none;fillStyle=auto;strokeColor=#F0F0F0;fontFamily=Helvetica;fontSize=10;fontColor=#007FFF;fillColor=#4D9900;" parent="oUVSl5xInov-beCNjxEz-249" vertex="1">
                    <mxGeometry y="24.5" width="80" height="15" as="geometry"/>
                </mxCell>
                <mxCell id="oUVSl5xInov-beCNjxEz-251" value="&lt;span style=&quot;font-size: 11px;&quot;&gt;JSP&lt;/span&gt;" style="text;strokeColor=none;align=left;fillColor=none;html=1;verticalAlign=middle;whiteSpace=wrap;rounded=0;labelBackgroundColor=none;fontSize=10;" parent="oUVSl5xInov-beCNjxEz-249" vertex="1">
                    <mxGeometry x="25" y="4.5" width="30" height="20" as="geometry"/>
                </mxCell>
                <mxCell id="41" style="edgeStyle=none;rounded=0;html=1;exitX=0.75;exitY=1;exitDx=0;exitDy=0;entryX=0;entryY=0.5;entryDx=0;entryDy=0;fontSize=11;fontColor=#000000;fillColor=none;" parent="1" source="46" target="49" edge="1">
                    <mxGeometry relative="1" as="geometry">
                        <Array as="points">
                            <mxPoint x="60" y="423"/>
                        </Array>
                    </mxGeometry>
                </mxCell>
                <mxCell id="42" value="&lt;span style=&quot;font-size: 11px;&quot;&gt;BOからの&lt;br&gt;戻り値：true&lt;br&gt;&lt;/span&gt;" style="text;strokeColor=none;align=left;fillColor=none;html=1;verticalAlign=middle;whiteSpace=wrap;rounded=0;labelBackgroundColor=none;fontSize=10;" parent="1" vertex="1">
                    <mxGeometry x="62.25" y="202.5" width="70" height="30" as="geometry"/>
                </mxCell>
                <mxCell id="43" value="フォワード" style="text;strokeColor=default;align=center;fillColor=none;html=1;verticalAlign=middle;whiteSpace=wrap;rounded=0;labelBackgroundColor=none;fontSize=10;" parent="1" vertex="1">
                    <mxGeometry x="70.25" y="241" width="59" height="15" as="geometry"/>
                </mxCell>
                <mxCell id="44" value="フォワード" style="text;strokeColor=default;align=center;fillColor=none;html=1;verticalAlign=middle;whiteSpace=wrap;rounded=0;labelBackgroundColor=none;fontSize=10;" parent="1" vertex="1">
                    <mxGeometry x="-50" y="241" width="60" height="15" as="geometry"/>
                </mxCell>
                <mxCell id="45" value="" style="group" parent="1" vertex="1" connectable="0">
                    <mxGeometry y="140" width="80" height="45" as="geometry"/>
                </mxCell>
                <mxCell id="46" value="&lt;font color=&quot;#ffffff&quot;&gt;LoginServlet&lt;br&gt;doPost()&lt;br&gt;&lt;/font&gt;" style="rounded=0;whiteSpace=wrap;html=1;labelBackgroundColor=none;fillStyle=auto;strokeColor=#F0F0F0;fontFamily=Helvetica;fontSize=10;fontColor=#007FFF;fillColor=#0066CC;" parent="45" vertex="1">
                    <mxGeometry y="20" width="80" height="25" as="geometry"/>
                </mxCell>
                <mxCell id="47" value="&lt;span style=&quot;font-size: 11px;&quot;&gt;Servlet&lt;/span&gt;" style="text;strokeColor=none;align=left;fillColor=none;html=1;verticalAlign=middle;whiteSpace=wrap;rounded=0;labelBackgroundColor=none;fontSize=10;" parent="45" vertex="1">
                    <mxGeometry x="17" width="46" height="20" as="geometry"/>
                </mxCell>
                <mxCell id="48" value="" style="group" parent="1" vertex="1" connectable="0">
                    <mxGeometry x="83.25" y="390" width="72.5" height="45" as="geometry"/>
                </mxCell>
                <mxCell id="49" value="&lt;font color=&quot;#ffffff&quot;&gt;MypageServlet&lt;br&gt;doPost()&lt;br&gt;&lt;/font&gt;" style="rounded=0;whiteSpace=wrap;html=1;labelBackgroundColor=none;fillStyle=auto;strokeColor=#F0F0F0;fontFamily=Helvetica;fontSize=10;fontColor=#007FFF;fillColor=#0066CC;" parent="48" vertex="1">
                    <mxGeometry y="20" width="72.5" height="25" as="geometry"/>
                </mxCell>
                <mxCell id="50" value="&lt;span style=&quot;font-size: 11px;&quot;&gt;Servlet&lt;/span&gt;" style="text;strokeColor=none;align=left;fillColor=none;html=1;verticalAlign=middle;whiteSpace=wrap;rounded=0;labelBackgroundColor=none;fontSize=10;" parent="48" vertex="1">
                    <mxGeometry x="13.25" width="46" height="20" as="geometry"/>
                </mxCell>
                <mxCell id="51" value="action=loginOK" style="text;strokeColor=#990000;align=center;fillColor=none;html=1;verticalAlign=middle;whiteSpace=wrap;rounded=0;labelBackgroundColor=none;fontSize=10;dashed=1;strokeWidth=2;perimeterSpacing=0;dashPattern=1 1;glass=1;" parent="1" vertex="1">
                    <mxGeometry x="62.25" y="259" width="75" height="23.5" as="geometry"/>
                </mxCell>
                <mxCell id="52" value="&lt;span style=&quot;font-size: 11px;&quot;&gt;保存&lt;br&gt;&lt;/span&gt;" style="text;strokeColor=none;align=left;fillColor=none;html=1;verticalAlign=middle;whiteSpace=wrap;rounded=0;labelBackgroundColor=none;fontSize=10;" parent="1" vertex="1">
                    <mxGeometry x="110" y="330" width="30" height="30" as="geometry"/>
                </mxCell>
                <mxCell id="53" value="フォワード" style="text;strokeColor=default;align=center;fillColor=none;html=1;verticalAlign=middle;whiteSpace=wrap;rounded=0;labelBackgroundColor=none;fontSize=10;" parent="1" vertex="1">
                    <mxGeometry x="50" y="470" width="60" height="15" as="geometry"/>
                </mxCell>
                <mxCell id="54" value="&lt;span style=&quot;font-size: 11px;&quot;&gt;BOからの&lt;br&gt;戻り値：false&lt;br&gt;&lt;/span&gt;" style="text;strokeColor=none;align=left;fillColor=none;html=1;verticalAlign=middle;whiteSpace=wrap;rounded=0;labelBackgroundColor=none;fontSize=10;" parent="1" vertex="1">
                    <mxGeometry x="-60" y="202.5" width="70" height="30" as="geometry"/>
                </mxCell>
            </root>
        </mxGraphModel>
    </diagram>
</mxfile>